<?xml version="1.0" encoding="UTF-8" standalone="no"?>
<!DOCTYPE svg PUBLIC "-//W3C//DTD SVG 1.1//EN" "http://www.w3.org/Graphics/SVG/1.1/DTD/svg11.dtd">
<!-- Generated by Microsoft Visio, SVG Export AmmoCount.svg Page-1 -->
<svg xmlns="http://www.w3.org/2000/svg" xmlns:xlink="http://www.w3.org/1999/xlink" xmlns:ev="http://www.w3.org/2001/xml-events"
		xmlns:v="http://schemas.microsoft.com/visio/2003/SVGExtensions/" width="1.17706in" height="1.16094in"
		viewBox="0 0 84.748 83.588" xml:space="preserve" color-interpolation-filters="sRGB" class="st8">
	<v:documentProperties v:langID="1033" v:viewMarkup="false"/>

	<style type="text/css">
	<![CDATA[
		.st1 {fill:none;stroke:#000000;stroke-linecap:round;stroke-linejoin:round;stroke-width:5.5}
		.st2 {fill:#7f7f7f;stroke:none;stroke-width:0.75}
		.st3 {fill:#ff0066;stroke:none;stroke-width:0.75}
		.st4 {fill:#bfbfbf;stroke:none;stroke-width:0.75}
		.st5 {fill:#ffc000;stroke:none;stroke-width:0.75}
		.st6 {fill:none;stroke:none;stroke-linecap:round;stroke-linejoin:round;stroke-width:0.75}
		.st7 {fill:#000000;font-family:Calibri;font-size:1.99999em;font-weight:bold}
		.st8 {fill:none;fill-rule:evenodd;font-size:12px;overflow:visible;stroke-linecap:square;stroke-miterlimit:3}
	]]>
	</style>

	<g v:mID="0" v:index="1" v:groupContext="foregroundPage">
		<title>Page-1</title>
		<v:pageProperties v:drawingScale="1" v:pageScale="1" v:drawingUnits="19" v:shadowOffsetX="9" v:shadowOffsetY="-9"/>
		<g id="shape270-1" v:mID="270" v:groupContext="shape" transform="translate(2.75,-2.75)">
			<title>Sheet.270</title>
			<rect x="0" y="5.5" width="78.6018" height="78.088" rx="4.5" ry="4.5" class="st1"/>
		</g>
		<g id="group271-3" transform="translate(6.43272,-8.82734)" v:mID="271" v:groupContext="group">
			<title>Sheet.271</title>
			<g id="shape175-4" v:mID="175" v:groupContext="shape" transform="translate(67.6836,-9.46728) rotate(40)">
				<title>Slim.8275</title>
				<rect x="0" y="60.4421" width="25.6189" height="23.1459" class="st2"/>
			</g>
			<g id="group176-6" transform="translate(53.5661,-21.3133) rotate(40)" v:mID="176" v:groupContext="group">
				<title>Slim.8276</title>
				<g id="shape177-7" v:mID="177" v:groupContext="shape" transform="translate(17.2121,-1.14349)">
					<title>Sheet.177</title>
					<path d="M27.89 74.87 L27.71 74.87 L0 74.87 L0 83.59 L27.71 83.59 L27.89 83.59 L28.3 83.59 L32.05 79.23 L28.3
								 74.87 L27.89 74.87 Z" class="st3"/>
				</g>
				<g id="shape178-9" v:mID="178" v:groupContext="shape" transform="translate(48.0094,-4.07313)">
					<title>Sheet.178</title>
					<path d="M19.61 83.59 L22.14 82.15 L19.64 80.73 L0 80.73 L0 83.59 L19.61 83.59 Z" class="st4"/>
				</g>
				<g id="shape179-11" v:mID="179" v:groupContext="shape" transform="translate(-66.1609,83.588) rotate(-90)">
					<title>Sheet.179</title>
					<path d="M9.78 75.53 L9.49 75.53 L7.72 75.53 L1.52 75.53 L1.11 75.53 L0 79.56 L1.11 83.59 L1.23 83.59 L1.52 83.59
								 L3.29 83.59 L9.49 83.59 L9.9 83.59 L11.01 79.56 L9.9 75.53 L9.78 75.53 Z" class="st5"/>
				</g>
				<g id="shape180-13" v:mID="180" v:groupContext="shape" transform="translate(1.90686,-4.07313)">
					<title>Sheet.180</title>
					<rect x="0" y="80.7267" width="9.04102" height="2.86132" class="st5"/>
				</g>
				<g id="shape181-15" v:mID="181" v:groupContext="shape" transform="translate(-81.1242,83.334) rotate(-90)">
					<title>Sheet.181</title>
					<rect x="0" y="81.1242" width="10.4995" height="2.46384" class="st5"/>
				</g>
			</g>
			<g id="group182-17" transform="translate(60.6256,-29.7265) rotate(40)" v:mID="182" v:groupContext="group">
				<title>Slim.8282</title>
				<g id="shape183-18" v:mID="183" v:groupContext="shape" transform="translate(17.2121,-1.14349)">
					<title>Sheet.183</title>
					<path d="M27.89 74.87 L27.71 74.87 L0 74.87 L0 83.59 L27.71 83.59 L27.89 83.59 L28.3 83.59 L32.05 79.23 L28.3
								 74.87 L27.89 74.87 Z" class="st3"/>
				</g>
				<g id="shape184-20" v:mID="184" v:groupContext="shape" transform="translate(48.0094,-4.07313)">
					<title>Sheet.184</title>
					<path d="M19.61 83.59 L22.14 82.15 L19.64 80.73 L0 80.73 L0 83.59 L19.61 83.59 Z" class="st4"/>
				</g>
				<g id="shape185-22" v:mID="185" v:groupContext="shape" transform="translate(-66.1609,83.588) rotate(-90)">
					<title>Sheet.185</title>
					<path d="M9.78 75.53 L9.49 75.53 L7.72 75.53 L1.52 75.53 L1.11 75.53 L0 79.56 L1.11 83.59 L1.23 83.59 L1.52 83.59
								 L3.29 83.59 L9.49 83.59 L9.9 83.59 L11.01 79.56 L9.9 75.53 L9.78 75.53 Z" class="st5"/>
				</g>
				<g id="shape186-24" v:mID="186" v:groupContext="shape" transform="translate(1.90686,-4.07313)">
					<title>Sheet.186</title>
					<rect x="0" y="80.7267" width="9.04102" height="2.86132" class="st5"/>
				</g>
				<g id="shape187-26" v:mID="187" v:groupContext="shape" transform="translate(-81.1242,83.334) rotate(-90)">
					<title>Sheet.187</title>
					<rect x="0" y="81.1242" width="10.4995" height="2.46384" class="st5"/>
				</g>
			</g>
			<g id="group188-28" transform="translate(67.6851,-38.1398) rotate(40)" v:mID="188" v:groupContext="group">
				<title>Slim.8288</title>
				<g id="shape189-29" v:mID="189" v:groupContext="shape" transform="translate(17.2121,-1.14349)">
					<title>Sheet.189</title>
					<path d="M27.89 74.87 L27.71 74.87 L0 74.87 L0 83.59 L27.71 83.59 L27.89 83.59 L28.3 83.59 L32.05 79.23 L28.3
								 74.87 L27.89 74.87 Z" class="st3"/>
				</g>
				<g id="shape190-31" v:mID="190" v:groupContext="shape" transform="translate(48.0094,-4.07313)">
					<title>Sheet.190</title>
					<path d="M19.61 83.59 L22.14 82.15 L19.64 80.73 L0 80.73 L0 83.59 L19.61 83.59 Z" class="st4"/>
				</g>
				<g id="shape191-33" v:mID="191" v:groupContext="shape" transform="translate(-66.1609,83.588) rotate(-90)">
					<title>Sheet.191</title>
					<path d="M9.78 75.53 L9.49 75.53 L7.72 75.53 L1.52 75.53 L1.11 75.53 L0 79.56 L1.11 83.59 L1.23 83.59 L1.52 83.59
								 L3.29 83.59 L9.49 83.59 L9.9 83.59 L11.01 79.56 L9.9 75.53 L9.78 75.53 Z" class="st5"/>
				</g>
				<g id="shape192-35" v:mID="192" v:groupContext="shape" transform="translate(1.90686,-4.07313)">
					<title>Sheet.192</title>
					<rect x="0" y="80.7267" width="9.04102" height="2.86132" class="st5"/>
				</g>
				<g id="shape193-37" v:mID="193" v:groupContext="shape" transform="translate(-81.1242,83.334) rotate(-90)">
					<title>Sheet.193</title>
					<rect x="0" y="81.1242" width="10.4995" height="2.46384" class="st5"/>
				</g>
			</g>
		</g>
		<g id="shape272-39" v:mID="272" v:groupContext="shape" transform="translate(61.0317,-4.33804)">
			<title>Sheet.272</title>
			<desc>#</desc>
			<v:textBlock v:margins="rect(4,4,4,4)" v:verticalAlign="0"/>
			<v:textRect cx="11.6706" cy="68.1984" width="23.35" height="30.7792"/>
			<rect x="0" y="52.8088" width="23.3413" height="30.7792" class="st6"/>
			<text x="4" y="78.41" class="st7" v:langID="1033"><v:paragraph/><v:tabList/>#</text>		</g>
	</g>
</svg>
