<?xml version="1.0" encoding="UTF-8" standalone="no"?>
<!DOCTYPE svg PUBLIC "-//W3C//DTD SVG 1.1//EN" "http://www.w3.org/Graphics/SVG/1.1/DTD/svg11.dtd">
<!-- Generated by Microsoft Visio, SVG Export Back3.svg Page-1 -->
<svg xmlns="http://www.w3.org/2000/svg" xmlns:xlink="http://www.w3.org/1999/xlink" xmlns:ev="http://www.w3.org/2001/xml-events"
		xmlns:v="http://schemas.microsoft.com/visio/2003/SVGExtensions/" width="29.1106in" height="17.0104in"
		viewBox="0 0 2095.96 1224.75" xml:space="preserve" color-interpolation-filters="sRGB" class="st18">
	<v:documentProperties v:langID="1033" v:viewMarkup="false"/>

	<style type="text/css">
	<![CDATA[
		.st1 {fill:#e2bc8d;stroke:none;stroke-linecap:round;stroke-linejoin:round;stroke-width:0.75}
		.st2 {fill:#f2f2f2;stroke:none;stroke-linecap:round;stroke-linejoin:round;stroke-width:0.75}
		.st3 {fill:#d8d8d8;stroke:none;stroke-linecap:round;stroke-linejoin:round;stroke-width:0.75}
		.st4 {fill:#9dbb61;stroke:none;stroke-linecap:round;stroke-linejoin:round;stroke-width:0.75}
		.st5 {fill:#ff6699;stroke:none;stroke-linecap:round;stroke-linejoin:round;stroke-width:0.75}
		.st6 {fill:#ff99cc;stroke:none;stroke-linecap:round;stroke-linejoin:round;stroke-width:0.75}
		.st7 {fill:#c00000;stroke:none;stroke-linecap:round;stroke-linejoin:round;stroke-width:0.75}
		.st8 {fill:#ff3399;stroke:#ff99cc;stroke-linecap:round;stroke-linejoin:round;stroke-width:3.25}
		.st9 {fill:#ff66ff;stroke:none;stroke-linecap:round;stroke-linejoin:round;stroke-width:0.75}
		.st10 {fill:#0070c0;stroke:none;stroke-linecap:round;stroke-linejoin:round;stroke-width:0.75}
		.st11 {fill:#000000;stroke:#ffffff;stroke-width:10}
		.st12 {fill:#c00000;stroke:none;stroke-width:5.75}
		.st13 {fill:#ffffff;stroke:none;stroke-linecap:round;stroke-linejoin:round;stroke-width:0.75}
		.st14 {fill:#c05046;stroke:none;stroke-width:5.75}
		.st15 {fill:#996633;stroke:none;stroke-linecap:round;stroke-linejoin:round;stroke-width:0.75}
		.st16 {fill:#002060;stroke:none;stroke-linecap:round;stroke-linejoin:round;stroke-width:0.75}
		.st17 {fill:#ffc000;stroke:none;stroke-linecap:round;stroke-linejoin:round;stroke-width:0.75}
		.st18 {fill:none;fill-rule:evenodd;font-size:12px;overflow:visible;stroke-linecap:square;stroke-miterlimit:3}
	]]>
	</style>

	<g v:mID="0" v:index="1" v:groupContext="foregroundPage">
		<title>Page-1</title>
		<v:pageProperties v:drawingScale="1" v:pageScale="1" v:drawingUnits="19" v:shadowOffsetX="9" v:shadowOffsetY="-9"/>
		<g id="shape639-1" v:mID="639" v:groupContext="shape" transform="translate(-913.216,1224.38) rotate(-90)">
			<title>Sheet.639</title>
			<rect x="0" y="913.591" width="1224" height="311.159" class="st1"/>
		</g>
		<g id="shape640-3" v:mID="640" v:groupContext="shape" transform="translate(600.84,1179.38) rotate(-90)">
			<title>Sheet.640</title>
			<rect x="0" y="-295.312" width="1134" height="1520.06" class="st2"/>
		</g>
		<g id="shape641-5" v:mID="641" v:groupContext="shape" transform="translate(-639.359,906.281) rotate(-90)">
			<title>Sheet.641</title>
			<rect x="0" y="934.759" width="582.188" height="289.991" class="st3"/>
		</g>
		<g id="shape642-7" v:mID="642" v:groupContext="shape" transform="translate(202.243,1043.53) rotate(-129.5)">
			<title>Sheet.642</title>
			<rect x="0" y="752.882" width="144" height="471.868" class="st4"/>
		</g>
		<g id="shape643-9" v:mID="643" v:groupContext="shape" transform="translate(171.373,227.291) rotate(-43.4)">
			<title>Sheet.643</title>
			<rect x="0" y="752.882" width="144" height="471.868" class="st4"/>
		</g>
		<g id="shape644-11" v:mID="644" v:groupContext="shape" transform="translate(-65.1605,781.687) rotate(-90)">
			<title>Sheet.644</title>
			<rect x="0" y="752.882" width="333" height="471.868" class="st4"/>
		</g>
		<g id="shape645-13" v:mID="645" v:groupContext="shape" transform="translate(-83.1604,747.375) rotate(-90)">
			<title>Sheet.645</title>
			<rect x="0" y="809.625" width="264.375" height="415.125" class="st5"/>
		</g>
		<g id="shape646-15" v:mID="646" v:groupContext="shape" transform="translate(-302.393,715.875) rotate(-90)">
			<title>Sheet.646</title>
			<rect x="0" y="1061.48" width="88.875" height="163.267" class="st6"/>
		</g>
		<g id="shape647-17" v:mID="647" v:groupContext="shape" transform="translate(-302.393,605.625) rotate(-90)">
			<title>Sheet.647</title>
			<rect x="0" y="1061.48" width="88.875" height="163.267" class="st6"/>
		</g>
		<g id="shape648-19" v:mID="648" v:groupContext="shape" transform="translate(-86.8385,-331.665) rotate(-45)">
			<title>Sheet.648</title>
			<rect x="0" y="1176.77" width="26.2498" height="47.9805" class="st7"/>
		</g>
		<g id="shape649-21" v:mID="649" v:groupContext="shape" transform="translate(-404.098,858.191) rotate(-105)">
			<title>Sheet.649</title>
			<rect x="0" y="1187.96" width="26.2498" height="36.7898" class="st7"/>
		</g>
		<g id="shape650-23" v:mID="650" v:groupContext="shape" transform="translate(-407.16,660.75) rotate(-90)">
			<title>Sheet.650</title>
			<rect x="0" y="1188.37" width="88.875" height="36.3836" class="st6"/>
		</g>
		<g id="shape651-25" v:mID="651" v:groupContext="shape" transform="translate(-365.565,596.625) rotate(-90)">
			<title>Sheet.651</title>
			<path d="M0 1158.24 L0 1185.88 L38.87 1224.75 L63.17 1224.75 L96.75 1191.17 L96.75 1127.72 L30.52 1127.72 L0 1158.24 Z"
					class="st7"/>
		</g>
		<g id="shape652-27" v:mID="652" v:groupContext="shape" transform="translate(-184.126,687.188) rotate(-90)">
			<title>Sheet.652</title>
			<rect x="0" y="1127.72" width="144" height="97.0344" rx="4.5" ry="4.5" class="st8"/>
		</g>
		<g id="shape653-29" v:mID="653" v:groupContext="shape" transform="translate(-164.16,675.375) rotate(-90)">
			<title>Sheet.653</title>
			<rect x="0" y="1213.22" width="117" height="11.5344" class="st9"/>
		</g>
		<g id="shape654-31" v:mID="654" v:groupContext="shape" transform="translate(-148.126,664.125) rotate(-90)">
			<title>Sheet.654</title>
			<rect x="0" y="1213.22" width="117" height="11.5344" class="st9"/>
		</g>
		<g id="shape655-33" v:mID="655" v:groupContext="shape" transform="translate(-159.66,562.875) rotate(-90)">
			<title>Sheet.655</title>
			<rect x="0" y="1208.72" width="15.75" height="16.0344" class="st9"/>
		</g>
		<g id="shape656-35" v:mID="656" v:groupContext="shape" transform="translate(-130.126,664.125) rotate(-90)">
			<title>Sheet.656</title>
			<rect x="0" y="1213.22" width="67.5" height="11.5344" class="st9"/>
		</g>
		<g id="shape657-37" v:mID="657" v:groupContext="shape" transform="translate(-130.126,675.375) rotate(-90)">
			<title>Sheet.657</title>
			<rect x="0" y="1195.22" width="15.75" height="29.5344" class="st9"/>
		</g>
		<g id="shape658-39" v:mID="658" v:groupContext="shape" transform="translate(-77.4601,610.125) rotate(-90)">
			<title>Sheet.658</title>
			<rect x="0" y="1160.55" width="15.75" height="64.2003" class="st9"/>
		</g>
		<g id="shape659-41" v:mID="659" v:groupContext="shape" transform="translate(-166.126,675.375) rotate(-90)">
			<title>Sheet.659</title>
			<rect x="0" y="1204.5" width="15.75" height="20.25" class="st9"/>
		</g>
		<g id="shape660-43" v:mID="660" v:groupContext="shape" transform="translate(-276.661,624.188) rotate(-90)">
			<title>Sheet.660</title>
			<rect x="0" y="1002" width="15.75" height="222.75" class="st9"/>
		</g>
		<g id="shape661-45" v:mID="661" v:groupContext="shape" transform="translate(388.708,781.687) rotate(-90)">
			<title>Sheet.661</title>
			<rect x="0" y="752.882" width="144" height="471.868" class="st10"/>
		</g>
		<g id="shape662-47" v:mID="662" v:groupContext="shape" transform="translate(388.708,592.688) rotate(-90)">
			<title>Sheet.662</title>
			<rect x="0" y="752.882" width="144" height="471.868" class="st10"/>
		</g>
		<g id="shape663-49" v:mID="663" v:groupContext="shape" transform="translate(46.5952,675.375) rotate(-90)">
			<title>Sheet.663</title>
			<rect x="0" y="1094.99" width="144" height="129.756" class="st10"/>
		</g>
		<g id="shape664-51" v:mID="664" v:groupContext="shape" transform="translate(-512.176,669.047) rotate(-90)">
			<title>Sheet.664</title>
			<rect x="0" y="1127.72" width="107.719" height="97.0344" class="st4"/>
		</g>
		<g id="shape665-53" v:mID="665" v:groupContext="shape" transform="translate(-587.16,727.284) rotate(-90)">
			<title>Sheet.665</title>
			<rect x="0" y="1022.79" width="224.193" height="201.956" class="st4"/>
		</g>
		<g id="shape666-55" v:mID="666" v:groupContext="shape" transform="translate(-407.16,632.626) rotate(-90)">
			<title>Sheet.666</title>
			<rect x="0" y="1022.7" width="34.8773" height="202.05" class="st6"/>
		</g>
		<g id="group667-57" transform="translate(-673.752,696.187) rotate(-90)" v:mID="667" v:groupContext="group">
			<title>Sheet.667</title>
			<g id="shape668-58" v:mID="668" v:groupContext="shape" transform="translate(0,-0.0822482)">
				<title>Sheet.668</title>
				<rect x="0" y="1117.92" width="162" height="106.826" class="st6"/>
			</g>
			<g id="shape669-60" v:mID="669" v:groupContext="shape" transform="translate(13.8082,-88.9298)">
				<title>Sheet.669</title>
				<rect x="0" y="1218.09" width="126.743" height="6.66394" class="st9"/>
			</g>
			<g id="shape670-62" v:mID="670" v:groupContext="shape" transform="translate(25.995,-79.666)">
				<title>Sheet.670</title>
				<rect x="0" y="1218.09" width="126.743" height="6.66394" class="st9"/>
			</g>
			<g id="shape671-64" v:mID="671" v:groupContext="shape" transform="translate(135.676,-86.33)">
				<title>Sheet.671</title>
				<rect x="0" y="1215.49" width="17.0616" height="9.2638" class="st9"/>
			</g>
			<g id="shape672-66" v:mID="672" v:groupContext="shape" transform="translate(13.8082,-69.2666)">
				<title>Sheet.672</title>
				<rect x="0" y="1207.69" width="17.0616" height="17.0634" class="st9"/>
			</g>
			<g id="shape673-68" v:mID="673" v:groupContext="shape" transform="translate(13.8082,-90.0655)">
				<title>Sheet.673</title>
				<rect x="0" y="1213.05" width="17.0616" height="11.6994" class="st9"/>
			</g>
			<g id="shape674-70" v:mID="674" v:groupContext="shape" transform="translate(13.8082,-66.3777)">
				<title>Sheet.674</title>
				<rect x="0" y="1218.09" width="126.743" height="6.66394" class="st9"/>
			</g>
			<g id="shape675-72" v:mID="675" v:groupContext="shape" transform="translate(19.3654,-57.1139)">
				<title>Sheet.675</title>
				<rect x="0" y="1218.09" width="133.373" height="6.66394" class="st9"/>
			</g>
			<g id="shape676-74" v:mID="676" v:groupContext="shape" transform="translate(135.676,-63.7778)">
				<title>Sheet.676</title>
				<rect x="0" y="1215.49" width="17.0616" height="9.2638" class="st9"/>
			</g>
			<g id="shape677-76" v:mID="677" v:groupContext="shape" transform="translate(21.2178,-46.7144)">
				<title>Sheet.677</title>
				<rect x="0" y="1218.09" width="131.52" height="6.66394" class="st9"/>
			</g>
			<g id="shape678-78" v:mID="678" v:groupContext="shape" transform="translate(13.8082,-46.7144)">
				<title>Sheet.678</title>
				<rect x="0" y="1207.69" width="11.1145" height="17.0634" class="st9"/>
			</g>
			<g id="shape679-80" v:mID="679" v:groupContext="shape" transform="translate(13.8082,-67.5133)">
				<title>Sheet.679</title>
				<rect x="0" y="1213.05" width="17.0616" height="11.6994" class="st9"/>
			</g>
			<g id="shape680-82" v:mID="680" v:groupContext="shape" transform="translate(15.6604,-24.8601)">
				<title>Sheet.680</title>
				<rect x="0" y="1218.09" width="126.743" height="6.66394" class="st9"/>
			</g>
			<g id="shape681-84" v:mID="681" v:groupContext="shape" transform="translate(21.2177,-37.0129)">
				<title>Sheet.681</title>
				<rect x="0" y="1218.09" width="131.52" height="6.66394" class="st9"/>
			</g>
			<g id="shape682-86" v:mID="682" v:groupContext="shape" transform="translate(15.6604,-26.6134)">
				<title>Sheet.682</title>
				<rect x="0" y="1207.69" width="11.1145" height="17.0634" class="st9"/>
			</g>
			<g id="shape683-88" v:mID="683" v:groupContext="shape" transform="translate(141.623,-37.9742)">
				<title>Sheet.683</title>
				<rect x="0" y="1209.35" width="11.1145" height="15.4042" class="st9"/>
			</g>
			<g id="shape684-90" v:mID="684" v:groupContext="shape" transform="translate(135.14,0)">
				<title>Sheet.684</title>
				<rect x="0" y="1196.53" width="7.39336" height="28.2247" class="st9"/>
			</g>
		</g>
		<g id="shape685-92" v:mID="685" v:groupContext="shape" transform="translate(-719.91,706.096) rotate(-90)">
			<title>Sheet.685</title>
			<rect x="0" y="1188.97" width="39.7213" height="35.7815" class="st11"/>
		</g>
		<g id="shape686-94" v:mID="686" v:groupContext="shape" transform="translate(-717.66,564.736) rotate(-90)">
			<title>Sheet.686</title>
			<rect x="0" y="1188.97" width="39.7213" height="35.7815" class="st11"/>
		</g>
		<g id="shape687-96" v:mID="687" v:groupContext="shape" transform="translate(-609.575,688.875) rotate(-90)">
			<title>Sheet.687</title>
			<rect x="0" y="1172.26" width="144" height="52.4888" class="st12"/>
		</g>
		<g id="shape688-98" v:mID="688" v:groupContext="shape" transform="translate(-645.66,681.346) rotate(-90)">
			<title>Sheet.688</title>
			<rect x="0" y="1208.35" width="23.9715" height="16.4036" class="st13"/>
		</g>
		<g id="shape689-100" v:mID="689" v:groupContext="shape" transform="translate(-609.575,652.875) rotate(-90)">
			<title>Sheet.689</title>
			<rect x="0" y="1188.37" width="69.2251" height="36.3836" class="st14"/>
		</g>
		<g id="shape690-102" v:mID="690" v:groupContext="shape" transform="translate(-645.66,603.375) rotate(-90)">
			<title>Sheet.690</title>
			<rect x="0" y="1208.35" width="23.9715" height="16.4036" class="st13"/>
		</g>
		<g id="shape691-104" v:mID="691" v:groupContext="shape" transform="translate(-609.575,669.047) rotate(-90)">
			<title>Sheet.691</title>
			<rect x="0" y="1208.35" width="23.9715" height="16.4036" class="st13"/>
		</g>
		<g id="shape692-106" v:mID="692" v:groupContext="shape" transform="translate(-609.575,615.361) rotate(-90)">
			<title>Sheet.692</title>
			<rect x="0" y="1208.35" width="23.9715" height="16.4036" class="st13"/>
		</g>
		<g id="shape693-108" v:mID="693" v:groupContext="shape" transform="translate(-609.575,577.846) rotate(-90)">
			<title>Sheet.693</title>
			<rect x="0" y="1208.35" width="23.9715" height="16.4036" class="st13"/>
		</g>
		<g id="shape694-110" v:mID="694" v:groupContext="shape" transform="translate(-632.76,629.25) rotate(-90)">
			<title>Sheet.694</title>
			<rect x="0" y="1211.55" width="15.75" height="13.199" class="st12"/>
		</g>
		<g id="shape695-112" v:mID="695" v:groupContext="shape" transform="translate(-645.66,646.861) rotate(-90)">
			<title>Sheet.695</title>
			<rect x="0" y="1208.35" width="23.9715" height="16.4036" class="st13"/>
		</g>
		<g id="shape696-114" v:mID="696" v:groupContext="shape" transform="translate(-780.66,747.375) rotate(-90)">
			<title>Sheet.696</title>
			<rect x="0" y="1106.63" width="264.375" height="118.125" class="st15"/>
		</g>
		<g id="shape697-116" v:mID="697" v:groupContext="shape" transform="translate(-59.4072,250.125) rotate(-90)">
			<title>Sheet.697</title>
			<rect x="0" y="1109.66" width="114.75" height="115.087" class="st4"/>
		</g>
		<g id="shape698-118" v:mID="698" v:groupContext="shape" transform="translate(-94.0731,1143.38) rotate(-90)">
			<title>Sheet.698</title>
			<rect x="0" y="1109.66" width="114.75" height="115.087" class="st4"/>
		</g>
		<g id="shape699-120" v:mID="699" v:groupContext="shape" transform="translate(-53.626,781.687) rotate(-90)">
			<title>Sheet.699</title>
			<rect x="0" y="1195.22" width="333" height="29.5344" class="st16"/>
		</g>
		<g id="shape700-122" v:mID="700" v:groupContext="shape" transform="translate(-40.8303,663.563) rotate(-90)">
			<title>Sheet.700</title>
			<rect x="0" y="1182.42" width="96.75" height="42.3302" class="st17"/>
		</g>
		<g id="shape701-124" v:mID="701" v:groupContext="shape" transform="translate(463.874,828.375) rotate(-90)">
			<title>Sheet.701</title>
			<rect x="0" y="1127.72" width="190.688" height="97.0344" class="st4"/>
		</g>
		<g id="shape702-126" v:mID="702" v:groupContext="shape" transform="translate(463.874,592.688) rotate(-90)">
			<title>Sheet.702</title>
			<rect x="0" y="1127.72" width="190.688" height="97.0344" class="st4"/>
		</g>
		<g id="shape703-128" v:mID="703" v:groupContext="shape" transform="translate(870.84,1224.37) rotate(-90)">
			<title>Sheet.703</title>
			<rect x="0" y="913.591" width="1224" height="311.159" class="st1"/>
		</g>
	</g>
</svg>
