<?xml version="1.0" encoding="UTF-8" standalone="no"?>
<!DOCTYPE svg PUBLIC "-//W3C//DTD SVG 1.1//EN" "http://www.w3.org/Graphics/SVG/1.1/DTD/svg11.dtd">
<!-- Generated by Microsoft Visio, SVG Export GunIcon.svg Page-1 -->
<svg xmlns="http://www.w3.org/2000/svg" xmlns:xlink="http://www.w3.org/1999/xlink" xmlns:ev="http://www.w3.org/2001/xml-events"
		xmlns:v="http://schemas.microsoft.com/visio/2003/SVGExtensions/" width="1.21781in" height="1.21781in"
		viewBox="0 0 87.6821 87.6821" xml:space="preserve" color-interpolation-filters="sRGB" class="st11">
	<v:documentProperties v:langID="1033" v:viewMarkup="false"/>

	<style type="text/css">
	<![CDATA[
		.st1 {fill:#7f7f7f;stroke:none;stroke-width:0.75}
		.st2 {fill:#a5a5a5;stroke:none;stroke-width:0.75}
		.st3 {fill:#bfbfbf;stroke:none;stroke-width:0.75}
		.st4 {fill:#bfbfbf;stroke:none;stroke-linecap:round;stroke-linejoin:round;stroke-width:0.75}
		.st5 {fill:#ff0066;stroke:none;stroke-width:0.75}
		.st6 {fill:#ffc000;stroke:none;stroke-width:0.75}
		.st7 {fill:#d8d8d8;stroke:none;stroke-width:0.75}
		.st8 {fill:#000000}
		.st9 {stroke:none;stroke-width:0.75}
		.st10 {fill:none;stroke:#c00000;stroke-linecap:round;stroke-linejoin:round;stroke-width:5.75}
		.st11 {fill:none;fill-rule:evenodd;font-size:12px;overflow:visible;stroke-linecap:square;stroke-miterlimit:3}
	]]>
	</style>

	<g v:mID="0" v:index="1" v:groupContext="foregroundPage">
		<title>Page-1</title>
		<v:pageProperties v:drawingScale="1" v:pageScale="1" v:drawingUnits="19" v:shadowOffsetX="9" v:shadowOffsetY="-9"/>
		<g id="group167-1" transform="translate(9.07295,-27.531)" v:mID="167" v:groupContext="group">
			<title>Sheet.167</title>
			<g id="shape92-2" v:mID="92" v:groupContext="shape" transform="translate(-65.2575,83.9651) rotate(-90)">
				<title>Slim.8066</title>
				<rect x="0" y="77.4051" width="7.53697" height="10.277" class="st1"/>
			</g>
			<g id="shape93-4" v:mID="93" v:groupContext="shape" transform="translate(-70.5436,73.2304) rotate(-90)">
				<title>Slim.8067</title>
				<rect x="0" y="72.7947" width="12.3943" height="14.8873" class="st1"/>
			</g>
			<g id="shape94-6" v:mID="94" v:groupContext="shape" transform="translate(13.9841,-14.5023)">
				<title>Slim.8068</title>
				<path d="M49.21 87.68 L55.55 81.45 L49.28 75.29 L0 75.29 L0 87.68 L49.21 87.68 Z" class="st2"/>
			</g>
			<g id="shape95-8" v:mID="95" v:groupContext="shape" transform="translate(-30.566,82.338) rotate(-90)">
				<title>Slim.8069</title>
				<rect x="0" y="84.3047" width="11.5453" height="3.37735" class="st2"/>
			</g>
			<g id="shape96-10" v:mID="96" v:groupContext="shape" transform="translate(-62.9524,77.2483) rotate(-90)">
				<title>Slim.8070</title>
				<rect x="0" y="72.7947" width="20.1139" height="14.8873" class="st2"/>
			</g>
			<g id="shape97-12" v:mID="97" v:groupContext="shape" transform="translate(-65.9176,62.9815) rotate(-90)">
				<title>Slim.8071</title>
				<rect x="0" y="77.6258" width="1.82725" height="10.0562" class="st3"/>
			</g>
			<g id="shape98-14" v:mID="98" v:groupContext="shape" transform="translate(-65.1615,63.5901) rotate(-90)">
				<title>Sheet.98</title>
				<ellipse cx="1.52227" cy="86.1598" rx="1.52227" ry="1.52227" class="st4"/>
			</g>
			<g id="shape99-16" v:mID="99" v:groupContext="shape" transform="translate(-72.2532,71.8638) rotate(-90)">
				<title>Slim.8073</title>
				<rect x="0" y="84.3047" width="1.82725" height="3.37735" class="st3"/>
			</g>
			<g id="shape100-18" v:mID="100" v:groupContext="shape" transform="translate(-66.3942,71.8638) rotate(-90)">
				<title>Slim.8074</title>
				<rect x="0" y="85.483" width="1.82725" height="2.19902" class="st3"/>
			</g>
			<g id="group101-20" transform="translate(28.0387,5.68434E-14)" v:mID="101" v:groupContext="group">
				<title>Sheet.101</title>
				<g id="group102-21" transform="translate(0,-21.3878)" v:mID="102" v:groupContext="group">
					<title>Slim.1904</title>
					<g id="shape103-22" v:mID="103" v:groupContext="shape" transform="translate(3.77012,-0.215674)">
						<title>Sheet.103</title>
						<path d="M6.11 86.04 L6.07 86.04 L0 86.04 L0 87.68 L6.07 87.68 L6.11 87.68 L6.2 87.68 L7.02 86.86 L6.2 86.04
									 L6.11 86.04 Z" class="st5"/>
					</g>
					<g id="shape104-24" v:mID="104" v:groupContext="shape" transform="translate(10.5159,-0.768237)">
						<title>Sheet.104</title>
						<path d="M4.3 87.68 L4.85 87.41 L4.3 87.14 L0 87.14 L0 87.68 L4.3 87.68 Z" class="st3"/>
					</g>
					<g id="shape105-26" v:mID="105" v:groupContext="shape" transform="translate(-83.8648,87.6821) rotate(-90)">
						<title>Sheet.105</title>
						<path d="M1.84 85.92 L1.79 85.92 L1.46 85.92 L0.29 85.92 L0.21 85.92 L0 86.8 L0.21 87.68 L0.23 87.68 L0.29
									 87.68 L0.62 87.68 L1.79 87.68 L1.87 87.68 L2.08 86.8 L1.87 85.92 L1.84 85.92 Z" class="st6"/>
					</g>
					<g id="shape106-28" v:mID="106" v:groupContext="shape" transform="translate(0.417675,-0.768237)">
						<title>Sheet.106</title>
						<rect x="0" y="87.1424" width="1.98033" height="0.539677" class="st6"/>
					</g>
					<g id="shape107-30" v:mID="107" v:groupContext="shape" transform="translate(-87.1424,87.6341) rotate(-90)">
						<title>Sheet.107</title>
						<rect x="0" y="87.1424" width="1.98033" height="0.539677" class="st6"/>
					</g>
				</g>
				<g id="group108-32" transform="translate(0,-18.5826)" v:mID="108" v:groupContext="group">
					<title>Slim.1910</title>
					<g id="shape109-33" v:mID="109" v:groupContext="shape" transform="translate(3.77012,-0.215674)">
						<title>Sheet.109</title>
						<path d="M6.11 86.04 L6.07 86.04 L0 86.04 L0 87.68 L6.07 87.68 L6.11 87.68 L6.2 87.68 L7.02 86.86 L6.2 86.04
									 L6.11 86.04 Z" class="st5"/>
					</g>
					<g id="shape110-35" v:mID="110" v:groupContext="shape" transform="translate(10.5159,-0.768237)">
						<title>Sheet.110</title>
						<path d="M4.3 87.68 L4.85 87.41 L4.3 87.14 L0 87.14 L0 87.68 L4.3 87.68 Z" class="st3"/>
					</g>
					<g id="shape111-37" v:mID="111" v:groupContext="shape" transform="translate(-83.8648,87.6821) rotate(-90)">
						<title>Sheet.111</title>
						<path d="M1.84 85.92 L1.79 85.92 L1.46 85.92 L0.29 85.92 L0.21 85.92 L0 86.8 L0.21 87.68 L0.23 87.68 L0.29
									 87.68 L0.62 87.68 L1.79 87.68 L1.87 87.68 L2.08 86.8 L1.87 85.92 L1.84 85.92 Z" class="st6"/>
					</g>
					<g id="shape112-39" v:mID="112" v:groupContext="shape" transform="translate(0.417675,-0.768237)">
						<title>Sheet.112</title>
						<rect x="0" y="87.1424" width="1.98033" height="0.539677" class="st6"/>
					</g>
					<g id="shape113-41" v:mID="113" v:groupContext="shape" transform="translate(-87.1424,87.6341) rotate(-90)">
						<title>Sheet.113</title>
						<rect x="0" y="87.1424" width="1.98033" height="0.539677" class="st6"/>
					</g>
				</g>
				<g id="group114-43" transform="translate(0.613985,-15.7773)" v:mID="114" v:groupContext="group">
					<title>Slim.1916</title>
					<g id="shape115-44" v:mID="115" v:groupContext="shape" transform="translate(3.77012,-0.215674)">
						<title>Sheet.115</title>
						<path d="M6.11 86.04 L6.07 86.04 L0 86.04 L0 87.68 L6.07 87.68 L6.11 87.68 L6.2 87.68 L7.02 86.86 L6.2 86.04
									 L6.11 86.04 Z" class="st5"/>
					</g>
					<g id="shape116-46" v:mID="116" v:groupContext="shape" transform="translate(10.5159,-0.768237)">
						<title>Sheet.116</title>
						<path d="M4.3 87.68 L4.85 87.41 L4.3 87.14 L0 87.14 L0 87.68 L4.3 87.68 Z" class="st3"/>
					</g>
					<g id="shape117-48" v:mID="117" v:groupContext="shape" transform="translate(-83.8648,87.6821) rotate(-90)">
						<title>Sheet.117</title>
						<path d="M1.84 85.92 L1.79 85.92 L1.46 85.92 L0.29 85.92 L0.21 85.92 L0 86.8 L0.21 87.68 L0.23 87.68 L0.29
									 87.68 L0.62 87.68 L1.79 87.68 L1.87 87.68 L2.08 86.8 L1.87 85.92 L1.84 85.92 Z" class="st6"/>
					</g>
					<g id="shape118-50" v:mID="118" v:groupContext="shape" transform="translate(0.417675,-0.768237)">
						<title>Sheet.118</title>
						<rect x="0" y="87.1424" width="1.98033" height="0.539677" class="st6"/>
					</g>
					<g id="shape119-52" v:mID="119" v:groupContext="shape" transform="translate(-87.1424,87.6341) rotate(-90)">
						<title>Sheet.119</title>
						<rect x="0" y="87.1424" width="1.98033" height="0.539677" class="st6"/>
					</g>
				</g>
				<g id="group120-54" transform="translate(1.22797,-12.972)" v:mID="120" v:groupContext="group">
					<title>Slim.1922</title>
					<g id="shape121-55" v:mID="121" v:groupContext="shape" transform="translate(3.77012,-0.215674)">
						<title>Sheet.121</title>
						<path d="M6.11 86.04 L6.07 86.04 L0 86.04 L0 87.68 L6.07 87.68 L6.11 87.68 L6.2 87.68 L7.02 86.86 L6.2 86.04
									 L6.11 86.04 Z" class="st5"/>
					</g>
					<g id="shape122-57" v:mID="122" v:groupContext="shape" transform="translate(10.5159,-0.768237)">
						<title>Sheet.122</title>
						<path d="M4.3 87.68 L4.85 87.41 L4.3 87.14 L0 87.14 L0 87.68 L4.3 87.68 Z" class="st3"/>
					</g>
					<g id="shape123-59" v:mID="123" v:groupContext="shape" transform="translate(-83.8648,87.6821) rotate(-90)">
						<title>Sheet.123</title>
						<path d="M1.84 85.92 L1.79 85.92 L1.46 85.92 L0.29 85.92 L0.21 85.92 L0 86.8 L0.21 87.68 L0.23 87.68 L0.29
									 87.68 L0.62 87.68 L1.79 87.68 L1.87 87.68 L2.08 86.8 L1.87 85.92 L1.84 85.92 Z" class="st6"/>
					</g>
					<g id="shape124-61" v:mID="124" v:groupContext="shape" transform="translate(0.417675,-0.768237)">
						<title>Sheet.124</title>
						<rect x="0" y="87.1424" width="1.98033" height="0.539677" class="st6"/>
					</g>
					<g id="shape125-63" v:mID="125" v:groupContext="shape" transform="translate(-87.1424,87.6341) rotate(-90)">
						<title>Sheet.125</title>
						<rect x="0" y="87.1424" width="1.98033" height="0.539677" class="st6"/>
					</g>
				</g>
				<g id="group126-65" transform="translate(2.99516,-9.9011)" v:mID="126" v:groupContext="group">
					<title>Slim.1928</title>
					<g id="shape127-66" v:mID="127" v:groupContext="shape" transform="translate(3.77012,-0.215674)">
						<title>Sheet.127</title>
						<path d="M6.11 86.04 L6.07 86.04 L0 86.04 L0 87.68 L6.07 87.68 L6.11 87.68 L6.2 87.68 L7.02 86.86 L6.2 86.04
									 L6.11 86.04 Z" class="st5"/>
					</g>
					<g id="shape128-68" v:mID="128" v:groupContext="shape" transform="translate(10.5159,-0.768237)">
						<title>Sheet.128</title>
						<path d="M4.3 87.68 L4.85 87.41 L4.3 87.14 L0 87.14 L0 87.68 L4.3 87.68 Z" class="st3"/>
					</g>
					<g id="shape129-70" v:mID="129" v:groupContext="shape" transform="translate(-83.8648,87.6821) rotate(-90)">
						<title>Sheet.129</title>
						<path d="M1.84 85.92 L1.79 85.92 L1.46 85.92 L0.29 85.92 L0.21 85.92 L0 86.8 L0.21 87.68 L0.23 87.68 L0.29
									 87.68 L0.62 87.68 L1.79 87.68 L1.87 87.68 L2.08 86.8 L1.87 85.92 L1.84 85.92 Z" class="st6"/>
					</g>
					<g id="shape130-72" v:mID="130" v:groupContext="shape" transform="translate(0.417675,-0.768237)">
						<title>Sheet.130</title>
						<rect x="0" y="87.1424" width="1.98033" height="0.539677" class="st6"/>
					</g>
					<g id="shape131-74" v:mID="131" v:groupContext="shape" transform="translate(-87.1424,87.6341) rotate(-90)">
						<title>Sheet.131</title>
						<rect x="0" y="87.1424" width="1.98033" height="0.539677" class="st6"/>
					</g>
				</g>
				<g id="group132-76" transform="translate(4.14836,-6.94136)" v:mID="132" v:groupContext="group">
					<title>Slim.1934</title>
					<g id="shape133-77" v:mID="133" v:groupContext="shape" transform="translate(3.77012,-0.215674)">
						<title>Sheet.133</title>
						<path d="M6.11 86.04 L6.07 86.04 L0 86.04 L0 87.68 L6.07 87.68 L6.11 87.68 L6.2 87.68 L7.02 86.86 L6.2 86.04
									 L6.11 86.04 Z" class="st5"/>
					</g>
					<g id="shape134-79" v:mID="134" v:groupContext="shape" transform="translate(10.5159,-0.768237)">
						<title>Sheet.134</title>
						<path d="M4.3 87.68 L4.85 87.41 L4.3 87.14 L0 87.14 L0 87.68 L4.3 87.68 Z" class="st3"/>
					</g>
					<g id="shape135-81" v:mID="135" v:groupContext="shape" transform="translate(-83.8648,87.6821) rotate(-90)">
						<title>Sheet.135</title>
						<path d="M1.84 85.92 L1.79 85.92 L1.46 85.92 L0.29 85.92 L0.21 85.92 L0 86.8 L0.21 87.68 L0.23 87.68 L0.29
									 87.68 L0.62 87.68 L1.79 87.68 L1.87 87.68 L2.08 86.8 L1.87 85.92 L1.84 85.92 Z" class="st6"/>
					</g>
					<g id="shape136-83" v:mID="136" v:groupContext="shape" transform="translate(0.417675,-0.768237)">
						<title>Sheet.136</title>
						<rect x="0" y="87.1424" width="1.98033" height="0.539677" class="st6"/>
					</g>
					<g id="shape137-85" v:mID="137" v:groupContext="shape" transform="translate(-87.1424,87.6341) rotate(-90)">
						<title>Sheet.137</title>
						<rect x="0" y="87.1424" width="1.98033" height="0.539677" class="st6"/>
					</g>
				</g>
				<g id="group138-87" transform="translate(5.64594,-3.98162)" v:mID="138" v:groupContext="group">
					<title>Slim.1940</title>
					<g id="shape139-88" v:mID="139" v:groupContext="shape" transform="translate(3.77012,-0.215674)">
						<title>Sheet.139</title>
						<path d="M6.11 86.04 L6.07 86.04 L0 86.04 L0 87.68 L6.07 87.68 L6.11 87.68 L6.2 87.68 L7.02 86.86 L6.2 86.04
									 L6.11 86.04 Z" class="st5"/>
					</g>
					<g id="shape140-90" v:mID="140" v:groupContext="shape" transform="translate(10.5159,-0.768237)">
						<title>Sheet.140</title>
						<path d="M4.3 87.68 L4.85 87.41 L4.3 87.14 L0 87.14 L0 87.68 L4.3 87.68 Z" class="st3"/>
					</g>
					<g id="shape141-92" v:mID="141" v:groupContext="shape" transform="translate(-83.8648,87.6821) rotate(-90)">
						<title>Sheet.141</title>
						<path d="M1.84 85.92 L1.79 85.92 L1.46 85.92 L0.29 85.92 L0.21 85.92 L0 86.8 L0.21 87.68 L0.23 87.68 L0.29
									 87.68 L0.62 87.68 L1.79 87.68 L1.87 87.68 L2.08 86.8 L1.87 85.92 L1.84 85.92 Z" class="st6"/>
					</g>
					<g id="shape142-94" v:mID="142" v:groupContext="shape" transform="translate(0.417675,-0.768237)">
						<title>Sheet.142</title>
						<rect x="0" y="87.1424" width="1.98033" height="0.539677" class="st6"/>
					</g>
					<g id="shape143-96" v:mID="143" v:groupContext="shape" transform="translate(-87.1424,87.6341) rotate(-90)">
						<title>Sheet.143</title>
						<rect x="0" y="87.1424" width="1.98033" height="0.539677" class="st6"/>
					</g>
				</g>
				<g id="group144-98" transform="translate(7.68273,-1.02187)" v:mID="144" v:groupContext="group">
					<title>Slim.1946</title>
					<g id="shape145-99" v:mID="145" v:groupContext="shape" transform="translate(3.77012,-0.215674)">
						<title>Sheet.145</title>
						<path d="M6.11 86.04 L6.07 86.04 L0 86.04 L0 87.68 L6.07 87.68 L6.11 87.68 L6.2 87.68 L7.02 86.86 L6.2 86.04
									 L6.11 86.04 Z" class="st5"/>
					</g>
					<g id="shape146-101" v:mID="146" v:groupContext="shape" transform="translate(10.5159,-0.768237)">
						<title>Sheet.146</title>
						<path d="M4.3 87.68 L4.85 87.41 L4.3 87.14 L0 87.14 L0 87.68 L4.3 87.68 Z" class="st3"/>
					</g>
					<g id="shape147-103" v:mID="147" v:groupContext="shape" transform="translate(-83.8648,87.6821) rotate(-90)">
						<title>Sheet.147</title>
						<path d="M1.84 85.92 L1.79 85.92 L1.46 85.92 L0.29 85.92 L0.21 85.92 L0 86.8 L0.21 87.68 L0.23 87.68 L0.29
									 87.68 L0.62 87.68 L1.79 87.68 L1.87 87.68 L2.08 86.8 L1.87 85.92 L1.84 85.92 Z" class="st6"/>
					</g>
					<g id="shape148-105" v:mID="148" v:groupContext="shape" transform="translate(0.417675,-0.768237)">
						<title>Sheet.148</title>
						<rect x="0" y="87.1424" width="1.98033" height="0.539677" class="st6"/>
					</g>
					<g id="shape149-107" v:mID="149" v:groupContext="shape" transform="translate(-87.1424,87.6341) rotate(-90)">
						<title>Sheet.149</title>
						<rect x="0" y="87.1424" width="1.98033" height="0.539677" class="st6"/>
					</g>
				</g>
				<g id="shape150-109" v:mID="150" v:groupContext="shape" transform="translate(7.82647,150.802) rotate(180)">
					<title>Slim.1952</title>
					<rect x="0" y="77.7996" width="1.59415" height="9.88243" class="st7"/>
				</g>
				<g id="shape151-111" v:mID="151" v:groupContext="shape" transform="translate(51.4539,147.899) rotate(150)">
					<title>Slim.1953</title>
					<rect x="0" y="70.4529" width="1.59415" height="17.2291" class="st7"/>
				</g>
			</g>
			<g id="shape152-113" v:mID="152" v:groupContext="shape" transform="translate(27.4477,-24.0533)">
				<title>Slim.8126</title>
				<rect x="0" y="85.483" width="16.5474" height="2.19902" class="st1"/>
			</g>
			<g id="shape153-115" v:mID="153" v:groupContext="shape" transform="translate(-82.3632,74.5472) rotate(-90)">
				<title>Slim.8127</title>
				<rect x="0" y="82.3632" width="15.5871" height="5.31882" class="st2"/>
			</g>
			<g id="shape154-117" v:mID="154" v:groupContext="shape" transform="translate(-62.1223,83.9651) rotate(-90)">
				<title>Slim.8128</title>
				<rect x="0" y="71.1346" width="3.25435" height="16.5474" class="st2"/>
			</g>
			<g id="shape155-119" v:mID="155" v:groupContext="shape" transform="translate(26.4664,-9.3283)">
				<title>Slim.8129</title>
				<rect x="0" y="81.7768" width="2.19902" height="5.90524" class="st2"/>
			</g>
			<g id="shape156-121" v:mID="156" v:groupContext="shape" transform="translate(20.8492,-29.3657)">
				<title>Slim.8130</title>
				<rect x="0" y="84.4277" width="2.19902" height="3.25435" class="st2"/>
			</g>
			<g id="shape157-123" v:mID="157" v:groupContext="shape" transform="translate(54.9171,-26.3797)">
				<title>Slim.8131</title>
				<rect x="0" y="84.0741" width="2.19902" height="3.60794" class="st2"/>
			</g>
			<g id="shape158-125" v:mID="158" v:groupContext="shape" transform="translate(23.0116,-28.1604)">
				<title>Slim.8132</title>
				<rect x="0" y="85.8548" width="33.4269" height="1.82725" class="st2"/>
			</g>
			<g id="shape159-127" v:mID="159" v:groupContext="shape" transform="translate(49.3102,-19.7426)">
				<title>Slim.8133</title>
				<path d="M6.92 87.68 L7.81 85.26 L6.92 82.87 L0 82.87 L0 87.68 L6.92 87.68 Z" class="st3"/>
			</g>
			<g id="shape160-129" v:mID="160" v:groupContext="shape" transform="translate(50.5537,-21.9628)">
				<title>Slim.8134</title>
				<path d="M4.71 87.68 L5.32 86.76 L4.72 85.85 L0 85.85 L0 87.68 L4.71 87.68 Z" class="st2"/>
			</g>
			<g id="shape161-131" v:mID="161" v:groupContext="shape" transform="translate(63.5412,-15.6743)">
				<title>Sheet.161</title>
				<path d="M0 87.68 L5.32 82.64 L0.06 77.66 L0 77.66 L0 87.68 L0 87.68 Z" class="st8"/>
				<path d="M0 87.68 L5.32 82.64 L0.06 77.66 L0 77.66 L0 87.68" class="st9"/>
			</g>
			<g id="shape162-134" v:mID="162" v:groupContext="shape" transform="translate(6.94359,5.20855) rotate(-45)">
				<title>Slim.8136</title>
				<rect x="0" y="80.1601" width="0.398509" height="7.52194" class="st1"/>
			</g>
			<g id="shape163-136" v:mID="163" v:groupContext="shape" transform="translate(125.401,10.0342) rotate(45)">
				<title>Slim.8137</title>
				<rect x="0" y="80.1601" width="0.398509" height="7.52194" class="st1"/>
			</g>
			<g id="shape164-138" v:mID="164" v:groupContext="shape" transform="translate(-29.5952,82.9542) rotate(-90)">
				<title>Slim.8138</title>
				<rect x="0" y="82.3632" width="3.25435" height="5.31882" class="st2"/>
			</g>
		</g>
		<g id="shape174-140" v:mID="174" v:groupContext="shape" transform="translate(2.875,-2.875)">
			<title>Sheet.174</title>
			<path d="M57.93 87.68 L81.93 63.68 L81.93 29.75 L57.93 5.75 L24 5.75 L0 29.75 L0 63.68 L24 87.68 L57.93 87.68 Z"
					class="st10"/>
		</g>
	</g>
</svg>
