<?xml version="1.0" encoding="UTF-8" standalone="no"?>
<!DOCTYPE svg PUBLIC "-//W3C//DTD SVG 1.1//EN" "http://www.w3.org/Graphics/SVG/1.1/DTD/svg11.dtd">
<!-- Generated by Microsoft Visio, SVG Export ArrowKeysHelp.svg Page-1 -->
<svg xmlns="http://www.w3.org/2000/svg" xmlns:xlink="http://www.w3.org/1999/xlink" xmlns:ev="http://www.w3.org/2001/xml-events"
		xmlns:v="http://schemas.microsoft.com/visio/2003/SVGExtensions/" width="3.83976in" height="2.51749in"
		viewBox="0 0 276.463 181.26" xml:space="preserve" color-interpolation-filters="sRGB" class="st6">
	<v:documentProperties v:langID="1033" v:viewMarkup="false"/>

	<style type="text/css">
	<![CDATA[
		.st1 {fill:#d8d8d8;stroke:#000000;stroke-width:2.5}
		.st2 {fill:none;stroke:none;stroke-width:0.25}
		.st3 {fill:#000000;font-family:Calibri;font-size:2.50001em}
		.st4 {marker-end:url(#mrkr4-17);stroke:#000000;stroke-linecap:butt;stroke-width:9}
		.st5 {fill:#000000;fill-opacity:1;stroke:#000000;stroke-opacity:1;stroke-width:0.78125}
		.st6 {fill:none;fill-rule:evenodd;font-size:12px;overflow:visible;stroke-linecap:square;stroke-miterlimit:3}
	]]>
	</style>

	<defs id="Markers">
		<g id="lend4">
			<path d="M 2 1 L 0 0 L 2 -1 L 2 1 " style="stroke:none"/>
		</g>
		<marker id="mrkr4-17" class="st5" v:arrowType="4" v:arrowSize="2" v:setback="2.56" refX="-2.56" orient="auto"
				markerUnits="strokeWidth" overflow="visible">
			<use xlink:href="#lend4" transform="scale(-1.28,-1.28) "/>
		</marker>
	</defs>
	<g v:mID="0" v:index="1" v:groupContext="foregroundPage">
		<title>Page-1</title>
		<v:pageProperties v:drawingScale="1" v:pageScale="1" v:drawingUnits="19" v:shadowOffsetX="9" v:shadowOffsetY="-9"/>
		<v:layer v:name="Annotations" v:index="0"/>
		<v:layer v:name="Flowchart" v:index="1"/>
		<g id="shape8948-1" v:mID="8948" v:groupContext="shape" transform="translate(109.457,-78.0919)">
			<title>function (best).8948</title>
			<v:userDefs>
				<v:ud v:nameU="msvShapeCategories" v:prompt="" v:val="VT4(Database;DbEntity)"/>
				<v:ud v:nameU="EntityName" v:prompt="" v:val="VT4()"/>
				<v:ud v:nameU="EntityNameSpace" v:prompt="" v:val="VT4()"/>
				<v:ud v:nameU="Weak" v:prompt="" v:val="VT0(0):5"/>
				<v:ud v:nameU="Composite" v:prompt="" v:val="VT0(0):5"/>
				<v:ud v:nameU="visVersion" v:prompt="" v:val="VT0(15):26"/>
			</v:userDefs>
			<path d="M4.5 181.26 L53.05 181.26 A4.5 4.5 -180 0 0 57.55 176.76 L57.55 130.33 A4.5 4.5 -180 0 0 53.05 125.83 L4.5 125.83
						 A4.5 4.5 -180 0 0 0 130.33 L0 176.76 A4.5 4.5 -180 0 0 4.5 181.26 Z" class="st1"/>
		</g>
		<g id="shape8949-3" v:mID="8949" v:groupContext="shape" transform="translate(47.6105,-16.6732)">
			<title>function (best).8949</title>
			<v:userDefs>
				<v:ud v:nameU="msvShapeCategories" v:prompt="" v:val="VT4(Database;DbEntity)"/>
				<v:ud v:nameU="EntityName" v:prompt="" v:val="VT4()"/>
				<v:ud v:nameU="EntityNameSpace" v:prompt="" v:val="VT4()"/>
				<v:ud v:nameU="Weak" v:prompt="" v:val="VT0(0):5"/>
				<v:ud v:nameU="Composite" v:prompt="" v:val="VT0(0):5"/>
				<v:ud v:nameU="visVersion" v:prompt="" v:val="VT0(15):26"/>
			</v:userDefs>
			<path d="M4.5 181.26 L53.05 181.26 A4.5 4.5 -180 0 0 57.55 176.76 L57.55 130.33 A4.5 4.5 -180 0 0 53.05 125.83 L4.5 125.83
						 A4.5 4.5 -180 0 0 0 130.33 L0 176.76 A4.5 4.5 -180 0 0 4.5 181.26 Z" class="st1"/>
		</g>
		<g id="shape8950-5" v:mID="8950" v:groupContext="shape" transform="translate(109.457,-16.6732)">
			<title>function (best).8950</title>
			<v:userDefs>
				<v:ud v:nameU="msvShapeCategories" v:prompt="" v:val="VT4(Database;DbEntity)"/>
				<v:ud v:nameU="EntityName" v:prompt="" v:val="VT4()"/>
				<v:ud v:nameU="EntityNameSpace" v:prompt="" v:val="VT4()"/>
				<v:ud v:nameU="Weak" v:prompt="" v:val="VT0(0):5"/>
				<v:ud v:nameU="Composite" v:prompt="" v:val="VT0(0):5"/>
				<v:ud v:nameU="visVersion" v:prompt="" v:val="VT0(15):26"/>
				<v:ud v:nameU="EntityName" v:prompt="" v:val="VT4( )"/>
				<v:ud v:nameU="EntityNameSpace" v:prompt="" v:val="VT4( )"/>
			</v:userDefs>
			<v:textBlock v:margins="rect(4,4,4,4)"/>
			<path d="M4.5 181.26 L53.05 181.26 A4.5 4.5 -180 0 0 57.55 176.76 L57.55 130.33 A4.5 4.5 -180 0 0 53.05 125.83 L4.5 125.83
						 A4.5 4.5 -180 0 0 0 130.33 L0 176.76 A4.5 4.5 -180 0 0 4.5 181.26 Z" class="st1"/>
		</g>
		<g id="shape8951-7" v:mID="8951" v:groupContext="shape" transform="translate(171.303,-16.6732)">
			<title>function (best).8951</title>
			<v:userDefs>
				<v:ud v:nameU="msvShapeCategories" v:prompt="" v:val="VT4(Database;DbEntity)"/>
				<v:ud v:nameU="EntityName" v:prompt="" v:val="VT4()"/>
				<v:ud v:nameU="EntityNameSpace" v:prompt="" v:val="VT4()"/>
				<v:ud v:nameU="Weak" v:prompt="" v:val="VT0(0):5"/>
				<v:ud v:nameU="Composite" v:prompt="" v:val="VT0(0):5"/>
				<v:ud v:nameU="visVersion" v:prompt="" v:val="VT0(15):26"/>
				<v:ud v:nameU="EntityName" v:prompt="" v:val="VT4( )"/>
				<v:ud v:nameU="EntityNameSpace" v:prompt="" v:val="VT4( )"/>
			</v:userDefs>
			<v:textBlock v:margins="rect(4,4,4,4)"/>
			<path d="M4.5 181.26 L53.05 181.26 A4.5 4.5 -180 0 0 57.55 176.76 L57.55 130.33 A4.5 4.5 -180 0 0 53.05 125.83 L4.5 125.83
						 A4.5 4.5 -180 0 0 0 130.33 L0 176.76 A4.5 4.5 -180 0 0 4.5 181.26 Z" class="st1"/>
		</g>
		<g id="shape8952-9" v:mID="8952" v:groupContext="shape" v:layerMember="0" transform="translate(0.25,-141.586)">
			<title>Sheet.8952</title>
			<desc>To Move Use Keys</desc>
			<v:userDefs>
				<v:ud v:nameU="AntiScale" v:val="VT0(1):26"/>
				<v:ud v:nameU="AutoWidth" v:val="VT0(0.38065555555553):1"/>
				<v:ud v:nameU="WidthIncrement" v:val="VT0(0.095163888888884):1"/>
				<v:ud v:nameU="visVersion" v:val="VT0(15):26"/>
				<v:ud v:nameU="AutoWidth" v:prompt="" v:val="VT0(3.2852690560477):1"/>
				<v:ud v:nameU="WidthIncrement" v:prompt="" v:val="VT0(0.27377242133731):1"/>
			</v:userDefs>
			<v:textBlock v:margins="rect(0,0,0,0)"/>
			<v:textRect cx="137.981" cy="161.548" width="275.97" height="39.4232"/>
			<rect x="0" y="141.836" width="275.963" height="39.4232" class="st2"/>
			<text x="26.75" y="170.55" class="st3" v:langID="1033"><v:paragraph v:horizAlign="1"/><v:tabList/>To Move Use Keys</text>		</g>
		<g id="shape8953-12" v:mID="8953" v:groupContext="shape" v:layerMember="1" transform="translate(-43.0282,92.5) rotate(-90)">
			<title>non-modifying arrow.8953</title>
			<v:userDefs>
				<v:ud v:nameU="visVersion" v:val="VT0(15):26"/>
				<v:ud v:nameU="Scale" v:val="VT0(1):26"/>
				<v:ud v:nameU="AntiScale" v:val="VT0(1):26"/>
			</v:userDefs>
			<path d="M0 181.26 L10.71 181.26" class="st4"/>
		</g>
		<g id="shape8955-18" v:mID="8955" v:groupContext="shape" v:layerMember="1"
				transform="translate(93.2601,318.309) rotate(180)">
			<title>non-modifying arrow.8955</title>
			<v:userDefs>
				<v:ud v:nameU="visVersion" v:val="VT0(15):26"/>
				<v:ud v:nameU="Scale" v:val="VT0(1):26"/>
				<v:ud v:nameU="AntiScale" v:val="VT0(1):26"/>
			</v:userDefs>
			<path d="M0 181.26 L10.71 181.26" class="st4"/>
		</g>
		<g id="shape8956-23" v:mID="8956" v:groupContext="shape" v:layerMember="1" transform="translate(183.203,-44.2096)">
			<title>non-modifying arrow.8956</title>
			<v:userDefs>
				<v:ud v:nameU="visVersion" v:val="VT0(15):26"/>
				<v:ud v:nameU="Scale" v:val="VT0(1):26"/>
				<v:ud v:nameU="AntiScale" v:val="VT0(1):26"/>
			</v:userDefs>
			<path d="M0 181.26 L10.71 181.26" class="st4"/>
		</g>
		<g id="shape8958-28" v:mID="8958" v:groupContext="shape" v:layerMember="1" transform="translate(319.491,121.75) rotate(90)">
			<title>non-modifying arrow.8958</title>
			<v:userDefs>
				<v:ud v:nameU="visVersion" v:val="VT0(15):26"/>
				<v:ud v:nameU="Scale" v:val="VT0(1):26"/>
				<v:ud v:nameU="AntiScale" v:val="VT0(1):26"/>
			</v:userDefs>
			<path d="M0 181.26 L10.71 181.26" class="st4"/>
		</g>
	</g>
</svg>
