<?xml version="1.0" encoding="UTF-8" standalone="no"?>
<!DOCTYPE svg PUBLIC "-//W3C//DTD SVG 1.1//EN" "http://www.w3.org/Graphics/SVG/1.1/DTD/svg11.dtd">
<!-- Generated by Microsoft Visio, SVG Export Back5.svg Page-1 -->
<svg xmlns="http://www.w3.org/2000/svg" xmlns:xlink="http://www.w3.org/1999/xlink" xmlns:ev="http://www.w3.org/2001/xml-events"
		xmlns:v="http://schemas.microsoft.com/visio/2003/SVGExtensions/" width="27.0566in" height="17.0104in"
		viewBox="0 0 1948.07 1224.75" xml:space="preserve" color-interpolation-filters="sRGB" class="st20">
	<v:documentProperties v:langID="1033" v:viewMarkup="false"/>

	<style type="text/css">
	<![CDATA[
		.st1 {fill:#e2bc8d;stroke:none;stroke-linecap:round;stroke-linejoin:round;stroke-width:0.75}
		.st2 {fill:#f2f2f2;stroke:none;stroke-linecap:round;stroke-linejoin:round;stroke-width:0.75}
		.st3 {fill:#d8d8d8;stroke:none;stroke-linecap:round;stroke-linejoin:round;stroke-width:0.75}
		.st4 {fill:#9dbb61;stroke:none;stroke-linecap:round;stroke-linejoin:round;stroke-width:0.75}
		.st5 {fill:#ff6699;stroke:none;stroke-linecap:round;stroke-linejoin:round;stroke-width:0.75}
		.st6 {fill:#ff99cc;stroke:none;stroke-linecap:round;stroke-linejoin:round;stroke-width:0.75}
		.st7 {fill:#c00000;stroke:none;stroke-linecap:round;stroke-linejoin:round;stroke-width:0.75}
		.st8 {fill:#ff3399;stroke:#ff99cc;stroke-linecap:round;stroke-linejoin:round;stroke-width:3.25}
		.st9 {fill:#ff66ff;stroke:none;stroke-linecap:round;stroke-linejoin:round;stroke-width:0.75}
		.st10 {fill:#0070c0;stroke:none;stroke-linecap:round;stroke-linejoin:round;stroke-width:0.75}
		.st11 {fill:#000000;stroke:none;stroke-width:10}
		.st12 {fill:#c00000;stroke:none;stroke-width:5.75}
		.st13 {fill:#ffffff;stroke:none;stroke-linecap:round;stroke-linejoin:round;stroke-width:0.75}
		.st14 {fill:#c05046;stroke:none;stroke-width:5.75}
		.st15 {fill:#996633;stroke:none;stroke-linecap:round;stroke-linejoin:round;stroke-width:0.75}
		.st16 {fill:#002060;stroke:none;stroke-linecap:round;stroke-linejoin:round;stroke-width:0.75}
		.st17 {fill:#ffc000;stroke:none;stroke-linecap:round;stroke-linejoin:round;stroke-width:0.75}
		.st18 {fill:#d69e5a;stroke:none;stroke-linecap:round;stroke-linejoin:round;stroke-width:0.75}
		.st19 {fill:#000000;stroke:none;stroke-linecap:round;stroke-linejoin:round;stroke-width:0.75}
		.st20 {fill:none;fill-rule:evenodd;font-size:12px;overflow:visible;stroke-linecap:square;stroke-miterlimit:3}
	]]>
	</style>

	<g v:mID="0" v:index="1" v:groupContext="foregroundPage">
		<title>Page-1</title>
		<v:pageProperties v:drawingScale="1" v:pageScale="1" v:drawingUnits="19" v:shadowOffsetX="9" v:shadowOffsetY="-9"/>
		<g id="shape1196-1" v:mID="1196" v:groupContext="shape" transform="translate(-913.216,1224.38) rotate(-90)">
			<title>Sheet.1196</title>
			<rect x="0" y="913.591" width="1224" height="311.159" class="st1"/>
		</g>
		<g id="shape1197-3" v:mID="1197" v:groupContext="shape" transform="translate(600.84,1179.38) rotate(-90)">
			<title>Sheet.1197</title>
			<rect x="0" y="-295.312" width="1134" height="1520.06" class="st2"/>
		</g>
		<g id="shape1198-5" v:mID="1198" v:groupContext="shape" transform="translate(-639.359,906.281) rotate(-90)">
			<title>Sheet.1198</title>
			<rect x="0" y="934.759" width="582.188" height="289.991" class="st3"/>
		</g>
		<g id="shape1199-7" v:mID="1199" v:groupContext="shape" transform="translate(202.243,1043.53) rotate(-129.5)">
			<title>Sheet.1199</title>
			<rect x="0" y="752.882" width="144" height="471.868" class="st4"/>
		</g>
		<g id="shape1200-9" v:mID="1200" v:groupContext="shape" transform="translate(171.373,227.291) rotate(-43.4)">
			<title>Sheet.1200</title>
			<rect x="0" y="752.882" width="144" height="471.868" class="st4"/>
		</g>
		<g id="shape1201-11" v:mID="1201" v:groupContext="shape" transform="translate(-65.1605,781.687) rotate(-90)">
			<title>Sheet.1201</title>
			<rect x="0" y="752.882" width="333" height="471.868" class="st4"/>
		</g>
		<g id="shape1202-13" v:mID="1202" v:groupContext="shape" transform="translate(-83.1604,747.375) rotate(-90)">
			<title>Sheet.1202</title>
			<rect x="0" y="809.625" width="264.375" height="415.125" class="st5"/>
		</g>
		<g id="shape1203-15" v:mID="1203" v:groupContext="shape" transform="translate(-302.393,715.875) rotate(-90)">
			<title>Sheet.1203</title>
			<rect x="0" y="1061.48" width="88.875" height="163.267" class="st6"/>
		</g>
		<g id="shape1204-17" v:mID="1204" v:groupContext="shape" transform="translate(-302.393,605.625) rotate(-90)">
			<title>Sheet.1204</title>
			<rect x="0" y="1061.48" width="88.875" height="163.267" class="st6"/>
		</g>
		<g id="shape1205-19" v:mID="1205" v:groupContext="shape" transform="translate(-86.8385,-331.665) rotate(-45)">
			<title>Sheet.1205</title>
			<rect x="0" y="1176.77" width="26.2498" height="47.9805" class="st7"/>
		</g>
		<g id="shape1206-21" v:mID="1206" v:groupContext="shape" transform="translate(-404.098,858.191) rotate(-105)">
			<title>Sheet.1206</title>
			<rect x="0" y="1187.96" width="26.2498" height="36.7898" class="st7"/>
		</g>
		<g id="shape1207-23" v:mID="1207" v:groupContext="shape" transform="translate(-407.16,660.75) rotate(-90)">
			<title>Sheet.1207</title>
			<rect x="0" y="1188.37" width="88.875" height="36.3836" class="st6"/>
		</g>
		<g id="shape1208-25" v:mID="1208" v:groupContext="shape" transform="translate(-365.565,596.625) rotate(-90)">
			<title>Sheet.1208</title>
			<path d="M0 1158.24 L0 1185.88 L38.87 1224.75 L63.17 1224.75 L96.75 1191.17 L96.75 1127.72 L30.52 1127.72 L0 1158.24 Z"
					class="st7"/>
		</g>
		<g id="shape1209-27" v:mID="1209" v:groupContext="shape" transform="translate(-184.126,687.188) rotate(-90)">
			<title>Sheet.1209</title>
			<rect x="0" y="1127.72" width="144" height="97.0344" rx="4.5" ry="4.5" class="st8"/>
		</g>
		<g id="shape1210-29" v:mID="1210" v:groupContext="shape" transform="translate(-164.16,675.375) rotate(-90)">
			<title>Sheet.1210</title>
			<rect x="0" y="1213.22" width="117" height="11.5344" class="st9"/>
		</g>
		<g id="shape1211-31" v:mID="1211" v:groupContext="shape" transform="translate(-148.126,664.125) rotate(-90)">
			<title>Sheet.1211</title>
			<rect x="0" y="1213.22" width="117" height="11.5344" class="st9"/>
		</g>
		<g id="shape1212-33" v:mID="1212" v:groupContext="shape" transform="translate(-159.66,562.875) rotate(-90)">
			<title>Sheet.1212</title>
			<rect x="0" y="1208.72" width="15.75" height="16.0344" class="st9"/>
		</g>
		<g id="shape1213-35" v:mID="1213" v:groupContext="shape" transform="translate(-130.126,664.125) rotate(-90)">
			<title>Sheet.1213</title>
			<rect x="0" y="1213.22" width="67.5" height="11.5344" class="st9"/>
		</g>
		<g id="shape1214-37" v:mID="1214" v:groupContext="shape" transform="translate(-130.126,675.375) rotate(-90)">
			<title>Sheet.1214</title>
			<rect x="0" y="1195.22" width="15.75" height="29.5344" class="st9"/>
		</g>
		<g id="shape1215-39" v:mID="1215" v:groupContext="shape" transform="translate(-77.4601,610.125) rotate(-90)">
			<title>Sheet.1215</title>
			<rect x="0" y="1160.55" width="15.75" height="64.2003" class="st9"/>
		</g>
		<g id="shape1216-41" v:mID="1216" v:groupContext="shape" transform="translate(-166.126,675.375) rotate(-90)">
			<title>Sheet.1216</title>
			<rect x="0" y="1204.5" width="15.75" height="20.25" class="st9"/>
		</g>
		<g id="shape1217-43" v:mID="1217" v:groupContext="shape" transform="translate(-276.661,624.188) rotate(-90)">
			<title>Sheet.1217</title>
			<rect x="0" y="1002" width="15.75" height="222.75" class="st9"/>
		</g>
		<g id="shape1218-45" v:mID="1218" v:groupContext="shape" transform="translate(388.708,781.687) rotate(-90)">
			<title>Sheet.1218</title>
			<rect x="0" y="752.882" width="144" height="471.868" class="st10"/>
		</g>
		<g id="shape1219-47" v:mID="1219" v:groupContext="shape" transform="translate(388.708,592.688) rotate(-90)">
			<title>Sheet.1219</title>
			<rect x="0" y="752.882" width="144" height="471.868" class="st10"/>
		</g>
		<g id="shape1220-49" v:mID="1220" v:groupContext="shape" transform="translate(46.5952,675.375) rotate(-90)">
			<title>Sheet.1220</title>
			<rect x="0" y="1094.99" width="144" height="129.756" class="st10"/>
		</g>
		<g id="shape1221-51" v:mID="1221" v:groupContext="shape" transform="translate(-512.176,669.047) rotate(-90)">
			<title>Sheet.1221</title>
			<rect x="0" y="1127.72" width="107.719" height="97.0344" class="st4"/>
		</g>
		<g id="shape1222-53" v:mID="1222" v:groupContext="shape" transform="translate(-587.16,727.284) rotate(-90)">
			<title>Sheet.1222</title>
			<rect x="0" y="1022.79" width="224.193" height="201.956" class="st4"/>
		</g>
		<g id="shape1223-55" v:mID="1223" v:groupContext="shape" transform="translate(-407.16,632.626) rotate(-90)">
			<title>Sheet.1223</title>
			<rect x="0" y="1022.7" width="34.8773" height="202.05" class="st6"/>
		</g>
		<g id="group1224-57" transform="translate(-673.752,696.187) rotate(-90)" v:mID="1224" v:groupContext="group">
			<title>Sheet.1224</title>
			<g id="shape1225-58" v:mID="1225" v:groupContext="shape" transform="translate(0,-0.0822482)">
				<title>Sheet.1225</title>
				<rect x="0" y="1117.92" width="162" height="106.826" class="st6"/>
			</g>
			<g id="shape1226-60" v:mID="1226" v:groupContext="shape" transform="translate(13.8082,-88.9298)">
				<title>Sheet.1226</title>
				<rect x="0" y="1218.09" width="126.743" height="6.66394" class="st9"/>
			</g>
			<g id="shape1227-62" v:mID="1227" v:groupContext="shape" transform="translate(25.995,-79.666)">
				<title>Sheet.1227</title>
				<rect x="0" y="1218.09" width="126.743" height="6.66394" class="st9"/>
			</g>
			<g id="shape1228-64" v:mID="1228" v:groupContext="shape" transform="translate(135.676,-86.33)">
				<title>Sheet.1228</title>
				<rect x="0" y="1215.49" width="17.0616" height="9.2638" class="st9"/>
			</g>
			<g id="shape1229-66" v:mID="1229" v:groupContext="shape" transform="translate(13.8082,-69.2666)">
				<title>Sheet.1229</title>
				<rect x="0" y="1207.69" width="17.0616" height="17.0634" class="st9"/>
			</g>
			<g id="shape1230-68" v:mID="1230" v:groupContext="shape" transform="translate(13.8082,-90.0655)">
				<title>Sheet.1230</title>
				<rect x="0" y="1213.05" width="17.0616" height="11.6994" class="st9"/>
			</g>
			<g id="shape1231-70" v:mID="1231" v:groupContext="shape" transform="translate(13.8082,-66.3777)">
				<title>Sheet.1231</title>
				<rect x="0" y="1218.09" width="126.743" height="6.66394" class="st9"/>
			</g>
			<g id="shape1232-72" v:mID="1232" v:groupContext="shape" transform="translate(19.3654,-57.1139)">
				<title>Sheet.1232</title>
				<rect x="0" y="1218.09" width="133.373" height="6.66394" class="st9"/>
			</g>
			<g id="shape1233-74" v:mID="1233" v:groupContext="shape" transform="translate(135.676,-63.7778)">
				<title>Sheet.1233</title>
				<rect x="0" y="1215.49" width="17.0616" height="9.2638" class="st9"/>
			</g>
			<g id="shape1234-76" v:mID="1234" v:groupContext="shape" transform="translate(21.2178,-46.7144)">
				<title>Sheet.1234</title>
				<rect x="0" y="1218.09" width="131.52" height="6.66394" class="st9"/>
			</g>
			<g id="shape1235-78" v:mID="1235" v:groupContext="shape" transform="translate(13.8082,-46.7144)">
				<title>Sheet.1235</title>
				<rect x="0" y="1207.69" width="11.1145" height="17.0634" class="st9"/>
			</g>
			<g id="shape1236-80" v:mID="1236" v:groupContext="shape" transform="translate(13.8082,-67.5133)">
				<title>Sheet.1236</title>
				<rect x="0" y="1213.05" width="17.0616" height="11.6994" class="st9"/>
			</g>
			<g id="shape1237-82" v:mID="1237" v:groupContext="shape" transform="translate(15.6604,-24.8601)">
				<title>Sheet.1237</title>
				<rect x="0" y="1218.09" width="126.743" height="6.66394" class="st9"/>
			</g>
			<g id="shape1238-84" v:mID="1238" v:groupContext="shape" transform="translate(21.2177,-37.0129)">
				<title>Sheet.1238</title>
				<rect x="0" y="1218.09" width="131.52" height="6.66394" class="st9"/>
			</g>
			<g id="shape1239-86" v:mID="1239" v:groupContext="shape" transform="translate(15.6604,-26.6134)">
				<title>Sheet.1239</title>
				<rect x="0" y="1207.69" width="11.1145" height="17.0634" class="st9"/>
			</g>
			<g id="shape1240-88" v:mID="1240" v:groupContext="shape" transform="translate(141.623,-37.9742)">
				<title>Sheet.1240</title>
				<rect x="0" y="1209.35" width="11.1145" height="15.4042" class="st9"/>
			</g>
			<g id="shape1241-90" v:mID="1241" v:groupContext="shape" transform="translate(135.14,0)">
				<title>Sheet.1241</title>
				<rect x="0" y="1196.53" width="7.39336" height="28.2247" class="st9"/>
			</g>
		</g>
		<g id="shape1242-92" v:mID="1242" v:groupContext="shape" transform="translate(-717.66,706.096) rotate(-90)">
			<title>Sheet.1242</title>
			<rect x="0" y="1204.5" width="39.7213" height="20.25" class="st11"/>
		</g>
		<g id="shape1243-94" v:mID="1243" v:groupContext="shape" transform="translate(-717.66,564.736) rotate(-90)">
			<title>Sheet.1243</title>
			<rect x="0" y="1204.5" width="39.7213" height="20.25" class="st11"/>
		</g>
		<g id="shape1244-96" v:mID="1244" v:groupContext="shape" transform="translate(-609.575,688.875) rotate(-90)">
			<title>Sheet.1244</title>
			<rect x="0" y="1172.26" width="144" height="52.4888" class="st12"/>
		</g>
		<g id="shape1245-98" v:mID="1245" v:groupContext="shape" transform="translate(-645.66,681.346) rotate(-90)">
			<title>Sheet.1245</title>
			<rect x="0" y="1208.35" width="23.9715" height="16.4036" class="st13"/>
		</g>
		<g id="shape1246-100" v:mID="1246" v:groupContext="shape" transform="translate(-609.575,652.875) rotate(-90)">
			<title>Sheet.1246</title>
			<rect x="0" y="1188.37" width="69.2251" height="36.3836" class="st14"/>
		</g>
		<g id="shape1247-102" v:mID="1247" v:groupContext="shape" transform="translate(-645.66,603.375) rotate(-90)">
			<title>Sheet.1247</title>
			<rect x="0" y="1208.35" width="23.9715" height="16.4036" class="st13"/>
		</g>
		<g id="shape1248-104" v:mID="1248" v:groupContext="shape" transform="translate(-609.575,669.047) rotate(-90)">
			<title>Sheet.1248</title>
			<rect x="0" y="1208.35" width="23.9715" height="16.4036" class="st13"/>
		</g>
		<g id="shape1249-106" v:mID="1249" v:groupContext="shape" transform="translate(-609.575,615.361) rotate(-90)">
			<title>Sheet.1249</title>
			<rect x="0" y="1208.35" width="23.9715" height="16.4036" class="st13"/>
		</g>
		<g id="shape1250-108" v:mID="1250" v:groupContext="shape" transform="translate(-609.575,577.846) rotate(-90)">
			<title>Sheet.1250</title>
			<rect x="0" y="1208.35" width="23.9715" height="16.4036" class="st13"/>
		</g>
		<g id="shape1251-110" v:mID="1251" v:groupContext="shape" transform="translate(-632.76,629.25) rotate(-90)">
			<title>Sheet.1251</title>
			<rect x="0" y="1211.55" width="15.75" height="13.199" class="st12"/>
		</g>
		<g id="shape1252-112" v:mID="1252" v:groupContext="shape" transform="translate(-645.66,646.861) rotate(-90)">
			<title>Sheet.1252</title>
			<rect x="0" y="1208.35" width="23.9715" height="16.4036" class="st13"/>
		</g>
		<g id="shape1253-114" v:mID="1253" v:groupContext="shape" transform="translate(-780.66,747.375) rotate(-90)">
			<title>Sheet.1253</title>
			<rect x="0" y="1106.63" width="264.375" height="118.125" class="st15"/>
		</g>
		<g id="shape1254-116" v:mID="1254" v:groupContext="shape" transform="translate(-59.4072,250.125) rotate(-90)">
			<title>Sheet.1254</title>
			<rect x="0" y="1109.66" width="114.75" height="115.087" class="st4"/>
		</g>
		<g id="shape1255-118" v:mID="1255" v:groupContext="shape" transform="translate(-94.0731,1143.38) rotate(-90)">
			<title>Sheet.1255</title>
			<rect x="0" y="1109.66" width="114.75" height="115.087" class="st4"/>
		</g>
		<g id="shape1256-120" v:mID="1256" v:groupContext="shape" transform="translate(-53.626,781.687) rotate(-90)">
			<title>Sheet.1256</title>
			<rect x="0" y="1195.22" width="333" height="29.5344" class="st16"/>
		</g>
		<g id="shape1257-122" v:mID="1257" v:groupContext="shape" transform="translate(-40.8303,663.563) rotate(-90)">
			<title>Sheet.1257</title>
			<rect x="0" y="1182.42" width="96.75" height="42.3302" class="st17"/>
		</g>
		<g id="shape1258-124" v:mID="1258" v:groupContext="shape" transform="translate(463.874,828.375) rotate(-90)">
			<title>Sheet.1258</title>
			<rect x="0" y="1127.72" width="190.688" height="97.0344" class="st4"/>
		</g>
		<g id="shape1259-126" v:mID="1259" v:groupContext="shape" transform="translate(463.874,592.688) rotate(-90)">
			<title>Sheet.1259</title>
			<rect x="0" y="1127.72" width="190.688" height="97.0344" class="st4"/>
		</g>
		<g id="shape1260-128" v:mID="1260" v:groupContext="shape" transform="translate(722.948,1224.38) rotate(-90)">
			<title>Sheet.1260</title>
			<rect x="0" y="1061.48" width="1224" height="163.267" class="st1"/>
		</g>
		<g id="shape1261-130" v:mID="1261" v:groupContext="shape" transform="translate(-1076.77,1224.38) rotate(-90)">
			<title>Sheet.1261</title>
			<rect x="0" y="1077.14" width="1224" height="147.607" class="st18"/>
		</g>
		<g id="shape1262-132" v:mID="1262" v:groupContext="shape" transform="translate(633.232,1224.38) rotate(-90)">
			<title>Sheet.1262</title>
			<rect x="0" y="1151.2" width="1224" height="73.5516" class="st18"/>
		</g>
		<g id="shape1064-134" v:mID="1064" v:groupContext="shape" transform="translate(-41.442,-565.289) rotate(-30)">
			<title>Sheet.1064</title>
			<path d="M39.28 1173.03 L0 1173.03 L0 1183.47 L25.84 1183.47 L0 1214.27 L0.05 1214.32 L0 1214.32 L0 1224.75 L39.28 1224.75
						 L39.28 1214.32 L13.58 1214.32 L39.28 1183.69 L39.28 1173.03 Z" class="st19"/>
		</g>
		<g id="shape1263-136" v:mID="1263" v:groupContext="shape" transform="translate(-48.5085,-663.043) rotate(-30)">
			<title>Sheet.1263</title>
			<path d="M45.58 1164.74 L0 1164.74 L0 1176.85 L29.99 1176.85 L0 1212.59 L0.06 1212.64 L0 1212.64 L0 1224.75 L45.58 1224.75
						 L45.58 1212.64 L15.76 1212.64 L45.58 1177.11 L45.58 1164.74 Z" class="st19"/>
		</g>
		<g id="shape1264-138" v:mID="1264" v:groupContext="shape" transform="translate(-135.246,-685.71) rotate(-30)">
			<title>Sheet.1264</title>
			<path d="M45.58 1164.74 L0 1164.74 L0 1176.85 L29.99 1176.85 L0 1212.59 L0.06 1212.64 L0 1212.64 L0 1224.75 L45.58 1224.75
						 L45.58 1212.64 L15.76 1212.64 L45.58 1177.11 L45.58 1164.74 Z" class="st19"/>
		</g>
	</g>
</svg>
