<?xml version="1.0" encoding="UTF-8" standalone="no"?>
<!DOCTYPE svg PUBLIC "-//W3C//DTD SVG 1.1//EN" "http://www.w3.org/Graphics/SVG/1.1/DTD/svg11.dtd">
<!-- Generated by Microsoft Visio, SVG Export Back4.svg Page-1 -->
<svg xmlns="http://www.w3.org/2000/svg" xmlns:xlink="http://www.w3.org/1999/xlink" xmlns:ev="http://www.w3.org/2001/xml-events"
		xmlns:v="http://schemas.microsoft.com/visio/2003/SVGExtensions/" width="27.0566in" height="17.0104in"
		viewBox="0 0 1948.07 1224.75" xml:space="preserve" color-interpolation-filters="sRGB" class="st19">
	<v:documentProperties v:langID="1033" v:viewMarkup="false"/>

	<style type="text/css">
	<![CDATA[
		.st1 {fill:#e2bc8d;stroke:none;stroke-linecap:round;stroke-linejoin:round;stroke-width:0.75}
		.st2 {fill:#f2f2f2;stroke:none;stroke-linecap:round;stroke-linejoin:round;stroke-width:0.75}
		.st3 {fill:#d8d8d8;stroke:none;stroke-linecap:round;stroke-linejoin:round;stroke-width:0.75}
		.st4 {fill:#9dbb61;stroke:none;stroke-linecap:round;stroke-linejoin:round;stroke-width:0.75}
		.st5 {fill:#ff6699;stroke:none;stroke-linecap:round;stroke-linejoin:round;stroke-width:0.75}
		.st6 {fill:#ff99cc;stroke:none;stroke-linecap:round;stroke-linejoin:round;stroke-width:0.75}
		.st7 {fill:#c00000;stroke:none;stroke-linecap:round;stroke-linejoin:round;stroke-width:0.75}
		.st8 {fill:#ff3399;stroke:#ff99cc;stroke-linecap:round;stroke-linejoin:round;stroke-width:3.25}
		.st9 {fill:#ff66ff;stroke:none;stroke-linecap:round;stroke-linejoin:round;stroke-width:0.75}
		.st10 {fill:#0070c0;stroke:none;stroke-linecap:round;stroke-linejoin:round;stroke-width:0.75}
		.st11 {fill:#000000;stroke:#ffffff;stroke-width:10}
		.st12 {fill:#c00000;stroke:none;stroke-width:5.75}
		.st13 {fill:#ffffff;stroke:none;stroke-linecap:round;stroke-linejoin:round;stroke-width:0.75}
		.st14 {fill:#c05046;stroke:none;stroke-width:5.75}
		.st15 {fill:#996633;stroke:none;stroke-linecap:round;stroke-linejoin:round;stroke-width:0.75}
		.st16 {fill:#002060;stroke:none;stroke-linecap:round;stroke-linejoin:round;stroke-width:0.75}
		.st17 {fill:#ffc000;stroke:none;stroke-linecap:round;stroke-linejoin:round;stroke-width:0.75}
		.st18 {fill:#d69e5a;stroke:none;stroke-linecap:round;stroke-linejoin:round;stroke-width:0.75}
		.st19 {fill:none;fill-rule:evenodd;font-size:12px;overflow:visible;stroke-linecap:square;stroke-miterlimit:3}
	]]>
	</style>

	<g v:mID="0" v:index="1" v:groupContext="foregroundPage">
		<title>Page-1</title>
		<v:pageProperties v:drawingScale="1" v:pageScale="1" v:drawingUnits="19" v:shadowOffsetX="9" v:shadowOffsetY="-9"/>
		<g id="shape854-1" v:mID="854" v:groupContext="shape" transform="translate(-913.216,1224.38) rotate(-90)">
			<title>Sheet.854</title>
			<rect x="0" y="913.591" width="1224" height="311.159" class="st1"/>
		</g>
		<g id="shape855-3" v:mID="855" v:groupContext="shape" transform="translate(600.84,1179.38) rotate(-90)">
			<title>Sheet.855</title>
			<rect x="0" y="-295.312" width="1134" height="1520.06" class="st2"/>
		</g>
		<g id="shape856-5" v:mID="856" v:groupContext="shape" transform="translate(-639.359,906.281) rotate(-90)">
			<title>Sheet.856</title>
			<rect x="0" y="934.759" width="582.188" height="289.991" class="st3"/>
		</g>
		<g id="shape857-7" v:mID="857" v:groupContext="shape" transform="translate(202.243,1043.53) rotate(-129.5)">
			<title>Sheet.857</title>
			<rect x="0" y="752.882" width="144" height="471.868" class="st4"/>
		</g>
		<g id="shape858-9" v:mID="858" v:groupContext="shape" transform="translate(171.373,227.291) rotate(-43.4)">
			<title>Sheet.858</title>
			<rect x="0" y="752.882" width="144" height="471.868" class="st4"/>
		</g>
		<g id="shape859-11" v:mID="859" v:groupContext="shape" transform="translate(-65.1605,781.687) rotate(-90)">
			<title>Sheet.859</title>
			<rect x="0" y="752.882" width="333" height="471.868" class="st4"/>
		</g>
		<g id="shape860-13" v:mID="860" v:groupContext="shape" transform="translate(-83.1604,747.375) rotate(-90)">
			<title>Sheet.860</title>
			<rect x="0" y="809.625" width="264.375" height="415.125" class="st5"/>
		</g>
		<g id="shape861-15" v:mID="861" v:groupContext="shape" transform="translate(-302.393,715.875) rotate(-90)">
			<title>Sheet.861</title>
			<rect x="0" y="1061.48" width="88.875" height="163.267" class="st6"/>
		</g>
		<g id="shape862-17" v:mID="862" v:groupContext="shape" transform="translate(-302.393,605.625) rotate(-90)">
			<title>Sheet.862</title>
			<rect x="0" y="1061.48" width="88.875" height="163.267" class="st6"/>
		</g>
		<g id="shape863-19" v:mID="863" v:groupContext="shape" transform="translate(-86.8385,-331.665) rotate(-45)">
			<title>Sheet.863</title>
			<rect x="0" y="1176.77" width="26.2498" height="47.9805" class="st7"/>
		</g>
		<g id="shape864-21" v:mID="864" v:groupContext="shape" transform="translate(-404.098,858.191) rotate(-105)">
			<title>Sheet.864</title>
			<rect x="0" y="1187.96" width="26.2498" height="36.7898" class="st7"/>
		</g>
		<g id="shape865-23" v:mID="865" v:groupContext="shape" transform="translate(-407.16,660.75) rotate(-90)">
			<title>Sheet.865</title>
			<rect x="0" y="1188.37" width="88.875" height="36.3836" class="st6"/>
		</g>
		<g id="shape866-25" v:mID="866" v:groupContext="shape" transform="translate(-365.565,596.625) rotate(-90)">
			<title>Sheet.866</title>
			<path d="M0 1158.24 L0 1185.88 L38.87 1224.75 L63.17 1224.75 L96.75 1191.17 L96.75 1127.72 L30.52 1127.72 L0 1158.24 Z"
					class="st7"/>
		</g>
		<g id="shape867-27" v:mID="867" v:groupContext="shape" transform="translate(-184.126,687.188) rotate(-90)">
			<title>Sheet.867</title>
			<rect x="0" y="1127.72" width="144" height="97.0344" rx="4.5" ry="4.5" class="st8"/>
		</g>
		<g id="shape868-29" v:mID="868" v:groupContext="shape" transform="translate(-164.16,675.375) rotate(-90)">
			<title>Sheet.868</title>
			<rect x="0" y="1213.22" width="117" height="11.5344" class="st9"/>
		</g>
		<g id="shape869-31" v:mID="869" v:groupContext="shape" transform="translate(-148.126,664.125) rotate(-90)">
			<title>Sheet.869</title>
			<rect x="0" y="1213.22" width="117" height="11.5344" class="st9"/>
		</g>
		<g id="shape870-33" v:mID="870" v:groupContext="shape" transform="translate(-159.66,562.875) rotate(-90)">
			<title>Sheet.870</title>
			<rect x="0" y="1208.72" width="15.75" height="16.0344" class="st9"/>
		</g>
		<g id="shape871-35" v:mID="871" v:groupContext="shape" transform="translate(-130.126,664.125) rotate(-90)">
			<title>Sheet.871</title>
			<rect x="0" y="1213.22" width="67.5" height="11.5344" class="st9"/>
		</g>
		<g id="shape872-37" v:mID="872" v:groupContext="shape" transform="translate(-130.126,675.375) rotate(-90)">
			<title>Sheet.872</title>
			<rect x="0" y="1195.22" width="15.75" height="29.5344" class="st9"/>
		</g>
		<g id="shape873-39" v:mID="873" v:groupContext="shape" transform="translate(-77.4601,610.125) rotate(-90)">
			<title>Sheet.873</title>
			<rect x="0" y="1160.55" width="15.75" height="64.2003" class="st9"/>
		</g>
		<g id="shape874-41" v:mID="874" v:groupContext="shape" transform="translate(-166.126,675.375) rotate(-90)">
			<title>Sheet.874</title>
			<rect x="0" y="1204.5" width="15.75" height="20.25" class="st9"/>
		</g>
		<g id="shape875-43" v:mID="875" v:groupContext="shape" transform="translate(-276.661,624.188) rotate(-90)">
			<title>Sheet.875</title>
			<rect x="0" y="1002" width="15.75" height="222.75" class="st9"/>
		</g>
		<g id="shape876-45" v:mID="876" v:groupContext="shape" transform="translate(388.708,781.687) rotate(-90)">
			<title>Sheet.876</title>
			<rect x="0" y="752.882" width="144" height="471.868" class="st10"/>
		</g>
		<g id="shape877-47" v:mID="877" v:groupContext="shape" transform="translate(388.708,592.688) rotate(-90)">
			<title>Sheet.877</title>
			<rect x="0" y="752.882" width="144" height="471.868" class="st10"/>
		</g>
		<g id="shape878-49" v:mID="878" v:groupContext="shape" transform="translate(46.5952,675.375) rotate(-90)">
			<title>Sheet.878</title>
			<rect x="0" y="1094.99" width="144" height="129.756" class="st10"/>
		</g>
		<g id="shape879-51" v:mID="879" v:groupContext="shape" transform="translate(-512.176,669.047) rotate(-90)">
			<title>Sheet.879</title>
			<rect x="0" y="1127.72" width="107.719" height="97.0344" class="st4"/>
		</g>
		<g id="shape880-53" v:mID="880" v:groupContext="shape" transform="translate(-587.16,727.284) rotate(-90)">
			<title>Sheet.880</title>
			<rect x="0" y="1022.79" width="224.193" height="201.956" class="st4"/>
		</g>
		<g id="shape881-55" v:mID="881" v:groupContext="shape" transform="translate(-407.16,632.626) rotate(-90)">
			<title>Sheet.881</title>
			<rect x="0" y="1022.7" width="34.8773" height="202.05" class="st6"/>
		</g>
		<g id="group882-57" transform="translate(-673.752,696.187) rotate(-90)" v:mID="882" v:groupContext="group">
			<title>Sheet.882</title>
			<g id="shape883-58" v:mID="883" v:groupContext="shape" transform="translate(0,-0.0822482)">
				<title>Sheet.883</title>
				<rect x="0" y="1117.92" width="162" height="106.826" class="st6"/>
			</g>
			<g id="shape884-60" v:mID="884" v:groupContext="shape" transform="translate(13.8082,-88.9298)">
				<title>Sheet.884</title>
				<rect x="0" y="1218.09" width="126.743" height="6.66394" class="st9"/>
			</g>
			<g id="shape885-62" v:mID="885" v:groupContext="shape" transform="translate(25.995,-79.666)">
				<title>Sheet.885</title>
				<rect x="0" y="1218.09" width="126.743" height="6.66394" class="st9"/>
			</g>
			<g id="shape886-64" v:mID="886" v:groupContext="shape" transform="translate(135.676,-86.33)">
				<title>Sheet.886</title>
				<rect x="0" y="1215.49" width="17.0616" height="9.2638" class="st9"/>
			</g>
			<g id="shape887-66" v:mID="887" v:groupContext="shape" transform="translate(13.8082,-69.2666)">
				<title>Sheet.887</title>
				<rect x="0" y="1207.69" width="17.0616" height="17.0634" class="st9"/>
			</g>
			<g id="shape888-68" v:mID="888" v:groupContext="shape" transform="translate(13.8082,-90.0655)">
				<title>Sheet.888</title>
				<rect x="0" y="1213.05" width="17.0616" height="11.6994" class="st9"/>
			</g>
			<g id="shape889-70" v:mID="889" v:groupContext="shape" transform="translate(13.8082,-66.3777)">
				<title>Sheet.889</title>
				<rect x="0" y="1218.09" width="126.743" height="6.66394" class="st9"/>
			</g>
			<g id="shape890-72" v:mID="890" v:groupContext="shape" transform="translate(19.3654,-57.1139)">
				<title>Sheet.890</title>
				<rect x="0" y="1218.09" width="133.373" height="6.66394" class="st9"/>
			</g>
			<g id="shape891-74" v:mID="891" v:groupContext="shape" transform="translate(135.676,-63.7778)">
				<title>Sheet.891</title>
				<rect x="0" y="1215.49" width="17.0616" height="9.2638" class="st9"/>
			</g>
			<g id="shape892-76" v:mID="892" v:groupContext="shape" transform="translate(21.2178,-46.7144)">
				<title>Sheet.892</title>
				<rect x="0" y="1218.09" width="131.52" height="6.66394" class="st9"/>
			</g>
			<g id="shape893-78" v:mID="893" v:groupContext="shape" transform="translate(13.8082,-46.7144)">
				<title>Sheet.893</title>
				<rect x="0" y="1207.69" width="11.1145" height="17.0634" class="st9"/>
			</g>
			<g id="shape894-80" v:mID="894" v:groupContext="shape" transform="translate(13.8082,-67.5133)">
				<title>Sheet.894</title>
				<rect x="0" y="1213.05" width="17.0616" height="11.6994" class="st9"/>
			</g>
			<g id="shape895-82" v:mID="895" v:groupContext="shape" transform="translate(15.6604,-24.8601)">
				<title>Sheet.895</title>
				<rect x="0" y="1218.09" width="126.743" height="6.66394" class="st9"/>
			</g>
			<g id="shape896-84" v:mID="896" v:groupContext="shape" transform="translate(21.2177,-37.0129)">
				<title>Sheet.896</title>
				<rect x="0" y="1218.09" width="131.52" height="6.66394" class="st9"/>
			</g>
			<g id="shape897-86" v:mID="897" v:groupContext="shape" transform="translate(15.6604,-26.6134)">
				<title>Sheet.897</title>
				<rect x="0" y="1207.69" width="11.1145" height="17.0634" class="st9"/>
			</g>
			<g id="shape898-88" v:mID="898" v:groupContext="shape" transform="translate(141.623,-37.9742)">
				<title>Sheet.898</title>
				<rect x="0" y="1209.35" width="11.1145" height="15.4042" class="st9"/>
			</g>
			<g id="shape899-90" v:mID="899" v:groupContext="shape" transform="translate(135.14,0)">
				<title>Sheet.899</title>
				<rect x="0" y="1196.53" width="7.39336" height="28.2247" class="st9"/>
			</g>
		</g>
		<g id="shape900-92" v:mID="900" v:groupContext="shape" transform="translate(-719.91,706.096) rotate(-90)">
			<title>Sheet.900</title>
			<rect x="0" y="1188.97" width="39.7213" height="35.7815" class="st11"/>
		</g>
		<g id="shape901-94" v:mID="901" v:groupContext="shape" transform="translate(-717.66,564.736) rotate(-90)">
			<title>Sheet.901</title>
			<rect x="0" y="1188.97" width="39.7213" height="35.7815" class="st11"/>
		</g>
		<g id="shape902-96" v:mID="902" v:groupContext="shape" transform="translate(-609.575,688.875) rotate(-90)">
			<title>Sheet.902</title>
			<rect x="0" y="1172.26" width="144" height="52.4888" class="st12"/>
		</g>
		<g id="shape903-98" v:mID="903" v:groupContext="shape" transform="translate(-645.66,681.346) rotate(-90)">
			<title>Sheet.903</title>
			<rect x="0" y="1208.35" width="23.9715" height="16.4036" class="st13"/>
		</g>
		<g id="shape904-100" v:mID="904" v:groupContext="shape" transform="translate(-609.575,652.875) rotate(-90)">
			<title>Sheet.904</title>
			<rect x="0" y="1188.37" width="69.2251" height="36.3836" class="st14"/>
		</g>
		<g id="shape905-102" v:mID="905" v:groupContext="shape" transform="translate(-645.66,603.375) rotate(-90)">
			<title>Sheet.905</title>
			<rect x="0" y="1208.35" width="23.9715" height="16.4036" class="st13"/>
		</g>
		<g id="shape906-104" v:mID="906" v:groupContext="shape" transform="translate(-609.575,669.047) rotate(-90)">
			<title>Sheet.906</title>
			<rect x="0" y="1208.35" width="23.9715" height="16.4036" class="st13"/>
		</g>
		<g id="shape907-106" v:mID="907" v:groupContext="shape" transform="translate(-609.575,615.361) rotate(-90)">
			<title>Sheet.907</title>
			<rect x="0" y="1208.35" width="23.9715" height="16.4036" class="st13"/>
		</g>
		<g id="shape908-108" v:mID="908" v:groupContext="shape" transform="translate(-609.575,577.846) rotate(-90)">
			<title>Sheet.908</title>
			<rect x="0" y="1208.35" width="23.9715" height="16.4036" class="st13"/>
		</g>
		<g id="shape909-110" v:mID="909" v:groupContext="shape" transform="translate(-632.76,629.25) rotate(-90)">
			<title>Sheet.909</title>
			<rect x="0" y="1211.55" width="15.75" height="13.199" class="st12"/>
		</g>
		<g id="shape910-112" v:mID="910" v:groupContext="shape" transform="translate(-645.66,646.861) rotate(-90)">
			<title>Sheet.910</title>
			<rect x="0" y="1208.35" width="23.9715" height="16.4036" class="st13"/>
		</g>
		<g id="shape911-114" v:mID="911" v:groupContext="shape" transform="translate(-780.66,747.375) rotate(-90)">
			<title>Sheet.911</title>
			<rect x="0" y="1106.63" width="264.375" height="118.125" class="st15"/>
		</g>
		<g id="shape912-116" v:mID="912" v:groupContext="shape" transform="translate(-59.4072,250.125) rotate(-90)">
			<title>Sheet.912</title>
			<rect x="0" y="1109.66" width="114.75" height="115.087" class="st4"/>
		</g>
		<g id="shape913-118" v:mID="913" v:groupContext="shape" transform="translate(-94.0731,1143.38) rotate(-90)">
			<title>Sheet.913</title>
			<rect x="0" y="1109.66" width="114.75" height="115.087" class="st4"/>
		</g>
		<g id="shape914-120" v:mID="914" v:groupContext="shape" transform="translate(-53.626,781.687) rotate(-90)">
			<title>Sheet.914</title>
			<rect x="0" y="1195.22" width="333" height="29.5344" class="st16"/>
		</g>
		<g id="shape915-122" v:mID="915" v:groupContext="shape" transform="translate(-40.8303,663.562) rotate(-90)">
			<title>Sheet.915</title>
			<rect x="0" y="1182.42" width="96.75" height="42.3302" class="st17"/>
		</g>
		<g id="shape916-124" v:mID="916" v:groupContext="shape" transform="translate(463.874,828.375) rotate(-90)">
			<title>Sheet.916</title>
			<rect x="0" y="1127.72" width="190.688" height="97.0344" class="st4"/>
		</g>
		<g id="shape917-126" v:mID="917" v:groupContext="shape" transform="translate(463.874,592.688) rotate(-90)">
			<title>Sheet.917</title>
			<rect x="0" y="1127.72" width="190.688" height="97.0344" class="st4"/>
		</g>
		<g id="shape918-128" v:mID="918" v:groupContext="shape" transform="translate(722.948,1224.37) rotate(-90)">
			<title>Sheet.918</title>
			<rect x="0" y="1061.48" width="1224" height="163.267" class="st1"/>
		</g>
		<g id="shape919-130" v:mID="919" v:groupContext="shape" transform="translate(-1076.77,1224.38) rotate(-90)">
			<title>Sheet.919</title>
			<rect x="0" y="1077.14" width="1224" height="147.607" class="st18"/>
		</g>
		<g id="shape920-132" v:mID="920" v:groupContext="shape" transform="translate(633.232,1224.37) rotate(-90)">
			<title>Sheet.920</title>
			<rect x="0" y="1151.2" width="1224" height="73.5516" class="st18"/>
		</g>
	</g>
</svg>
