<?xml version="1.0" encoding="UTF-8" standalone="no"?>
<!DOCTYPE svg PUBLIC "-//W3C//DTD SVG 1.1//EN" "http://www.w3.org/Graphics/SVG/1.1/DTD/svg11.dtd">
<!-- Generated by Microsoft Visio, SVG Export RifleIcon.svg Page-1 -->
<svg xmlns="http://www.w3.org/2000/svg" xmlns:xlink="http://www.w3.org/1999/xlink" xmlns:ev="http://www.w3.org/2001/xml-events"
		xmlns:v="http://schemas.microsoft.com/visio/2003/SVGExtensions/" width="1.21781in" height="1.21781in"
		viewBox="0 0 87.6821 87.6821" xml:space="preserve" color-interpolation-filters="sRGB" class="st11">
	<v:documentProperties v:langID="1033" v:viewMarkup="false"/>

	<style type="text/css">
	<![CDATA[
		.st1 {fill:#7f7f7f;stroke:none;stroke-width:0.75}
		.st2 {fill:#a5a5a5;stroke:none;stroke-width:0.75}
		.st3 {fill:#663300;stroke:none;stroke-width:0.75}
		.st4 {fill:#996633;stroke:none;stroke-width:0.75}
		.st5 {fill:#ff0066;stroke:none;stroke-width:0.75}
		.st6 {fill:#bfbfbf;stroke:none;stroke-width:0.75}
		.st7 {fill:#ffc000;stroke:none;stroke-width:0.75}
		.st8 {fill:#00b050;stroke:none;stroke-width:0.75}
		.st9 {fill:#d8d8d8;stroke:none;stroke-width:0.75}
		.st10 {fill:none;stroke:#c00000;stroke-linecap:round;stroke-linejoin:round;stroke-width:5.75}
		.st11 {fill:none;fill-rule:evenodd;font-size:12px;overflow:visible;stroke-linecap:square;stroke-miterlimit:3}
	]]>
	</style>

	<g v:mID="0" v:index="1" v:groupContext="foregroundPage">
		<title>Page-1</title>
		<v:pageProperties v:drawingScale="1" v:pageScale="1" v:drawingUnits="19" v:shadowOffsetX="9" v:shadowOffsetY="-9"/>
		<g id="shape583-1" v:mID="583" v:groupContext="shape" transform="translate(-25.2704,98.4832) rotate(-130)">
			<title>Slim.583</title>
			<rect x="0" y="85.6156" width="1.41973" height="2.06648" class="st1"/>
		</g>
		<g id="shape584-3" v:mID="584" v:groupContext="shape" transform="translate(-16.7088,-15.6678) rotate(-40)">
			<title>Slim.584</title>
			<rect x="0" y="83.9484" width="4.1326" height="3.73369" class="st1"/>
		</g>
		<g id="shape585-5" v:mID="585" v:groupContext="shape" transform="translate(-24.8487,102.105) rotate(-130)">
			<title>Slim.585</title>
			<rect x="0" y="79.8686" width="4.46551" height="7.81347" class="st2"/>
		</g>
		<g id="shape586-7" v:mID="586" v:groupContext="shape" transform="translate(-30.2979,106.678) rotate(-130)">
			<title>Slim.586</title>
			<rect x="0" y="79.8686" width="4.46551" height="7.81347" class="st3"/>
		</g>
		<g id="shape587-9" v:mID="587" v:groupContext="shape" transform="translate(-18.2823,126.022) rotate(-145)">
			<title>Slim.587</title>
			<rect x="0" y="66.7748" width="4.46551" height="20.9072" class="st3"/>
		</g>
		<g id="shape588-11" v:mID="588" v:groupContext="shape" transform="translate(-35.0605,110.674) rotate(-130)">
			<title>Slim.588</title>
			<rect x="0" y="66.3315" width="4.46551" height="21.3506" class="st3"/>
		</g>
		<g id="shape589-13" v:mID="589" v:groupContext="shape" transform="translate(-43.0955,121.891) rotate(-130)">
			<title>Slim.589</title>
			<rect x="0" y="79.6971" width="7.89369" height="7.98499" class="st3"/>
		</g>
		<g id="shape590-15" v:mID="590" v:groupContext="shape" transform="translate(-44.7151,125.955) rotate(-130)">
			<title>Slim.590</title>
			<rect x="0" y="83.5495" width="4.08535" height="4.1326" class="st3"/>
		</g>
		<g id="shape591-17" v:mID="591" v:groupContext="shape" transform="translate(-27.3966,101.223) rotate(-130)">
			<title>Slim.591</title>
			<rect x="0" y="83.5495" width="1.41973" height="4.1326" class="st1"/>
		</g>
		<g id="shape592-19" v:mID="592" v:groupContext="shape" transform="translate(-32.8401,103.66) rotate(-130)">
			<title>Slim.592</title>
			<rect x="0" y="60.1219" width="0.519445" height="27.5602" class="st4"/>
		</g>
		<g id="shape593-21" v:mID="593" v:groupContext="shape" transform="translate(-26.7178,99.6978) rotate(-130)">
			<title>Slim.593</title>
			<rect x="0" y="87.505" width="1.41973" height="0.177036" class="st1"/>
		</g>
		<g id="shape594-23" v:mID="594" v:groupContext="shape" transform="translate(-15.0605,-13.7035) rotate(-40)">
			<title>Slim.594</title>
			<rect x="0" y="83.9484" width="4.1326" height="3.73369" class="st1"/>
		</g>
		<g id="group595-25" transform="translate(-17.3378,-11.7926) rotate(-40)" v:mID="595" v:groupContext="group">
			<title>Slim.595</title>
			<g id="shape596-26" v:mID="596" v:groupContext="shape" transform="translate(2.7765,-0.184457)">
				<title>Sheet.596</title>
				<path d="M4.5 86.28 L4.47 86.28 L0 86.28 L0 87.68 L4.47 87.68 L4.5 87.68 L4.56 87.68 L5.17 86.98 L4.56 86.28 L4.5
							 86.28 Z" class="st5"/>
			</g>
			<g id="shape597-28" v:mID="597" v:groupContext="shape" transform="translate(7.74444,-0.65704)">
				<title>Sheet.597</title>
				<path d="M3.16 87.68 L3.57 87.45 L3.17 87.22 L0 87.22 L0 87.68 L3.16 87.68 Z" class="st6"/>
			</g>
			<g id="shape598-30" v:mID="598" v:groupContext="shape" transform="translate(-84.8709,87.6821) rotate(-90)">
				<title>Sheet.598</title>
				<path d="M1.58 86.38 L1.53 86.38 L1.24 86.38 L0.25 86.38 L0.18 86.38 L0 87.03 L0.18 87.68 L0.2 87.68 L0.25 87.68
							 L0.53 87.68 L1.53 87.68 L1.6 87.68 L1.78 87.03 L1.6 86.38 L1.58 86.38 Z" class="st7"/>
			</g>
			<g id="shape599-32" v:mID="599" v:groupContext="shape" transform="translate(0.307597,-0.65704)">
				<title>Sheet.599</title>
				<rect x="0" y="87.2205" width="1.45841" height="0.461562" class="st7"/>
			</g>
			<g id="shape600-34" v:mID="600" v:groupContext="shape" transform="translate(-87.2846,87.6411) rotate(-90)">
				<title>Sheet.600</title>
				<rect x="0" y="87.2846" width="1.69369" height="0.397445" class="st7"/>
			</g>
		</g>
		<g id="group601-36" transform="translate(-18.4766,-13.1497) rotate(-40)" v:mID="601" v:groupContext="group">
			<title>Slim.601</title>
			<g id="shape602-37" v:mID="602" v:groupContext="shape" transform="translate(2.7765,-0.184457)">
				<title>Sheet.602</title>
				<path d="M4.5 86.28 L4.47 86.28 L0 86.28 L0 87.68 L4.47 87.68 L4.5 87.68 L4.56 87.68 L5.17 86.98 L4.56 86.28 L4.5
							 86.28 Z" class="st5"/>
			</g>
			<g id="shape603-39" v:mID="603" v:groupContext="shape" transform="translate(7.74444,-0.65704)">
				<title>Sheet.603</title>
				<path d="M3.16 87.68 L3.57 87.45 L3.17 87.22 L0 87.22 L0 87.68 L3.16 87.68 Z" class="st6"/>
			</g>
			<g id="shape604-41" v:mID="604" v:groupContext="shape" transform="translate(-84.8709,87.6821) rotate(-90)">
				<title>Sheet.604</title>
				<path d="M1.58 86.38 L1.53 86.38 L1.24 86.38 L0.25 86.38 L0.18 86.38 L0 87.03 L0.18 87.68 L0.2 87.68 L0.25 87.68
							 L0.53 87.68 L1.53 87.68 L1.6 87.68 L1.78 87.03 L1.6 86.38 L1.58 86.38 Z" class="st7"/>
			</g>
			<g id="shape605-43" v:mID="605" v:groupContext="shape" transform="translate(0.307597,-0.65704)">
				<title>Sheet.605</title>
				<rect x="0" y="87.2205" width="1.45841" height="0.461562" class="st7"/>
			</g>
			<g id="shape606-45" v:mID="606" v:groupContext="shape" transform="translate(-87.2846,87.6411) rotate(-90)">
				<title>Sheet.606</title>
				<rect x="0" y="87.2846" width="1.69369" height="0.397445" class="st7"/>
			</g>
		</g>
		<g id="group607-47" transform="translate(-19.6154,-14.5069) rotate(-40)" v:mID="607" v:groupContext="group">
			<title>Slim.607</title>
			<g id="shape608-48" v:mID="608" v:groupContext="shape" transform="translate(2.7765,-0.184457)">
				<title>Sheet.608</title>
				<path d="M4.5 86.28 L4.47 86.28 L0 86.28 L0 87.68 L4.47 87.68 L4.5 87.68 L4.56 87.68 L5.17 86.98 L4.56 86.28 L4.5
							 86.28 Z" class="st5"/>
			</g>
			<g id="shape609-50" v:mID="609" v:groupContext="shape" transform="translate(7.74444,-0.65704)">
				<title>Sheet.609</title>
				<path d="M3.16 87.68 L3.57 87.45 L3.17 87.22 L0 87.22 L0 87.68 L3.16 87.68 Z" class="st6"/>
			</g>
			<g id="shape610-52" v:mID="610" v:groupContext="shape" transform="translate(-84.8709,87.6821) rotate(-90)">
				<title>Sheet.610</title>
				<path d="M1.58 86.38 L1.53 86.38 L1.24 86.38 L0.25 86.38 L0.18 86.38 L0 87.03 L0.18 87.68 L0.2 87.68 L0.25 87.68
							 L0.53 87.68 L1.53 87.68 L1.6 87.68 L1.78 87.03 L1.6 86.38 L1.58 86.38 Z" class="st7"/>
			</g>
			<g id="shape611-54" v:mID="611" v:groupContext="shape" transform="translate(0.307597,-0.65704)">
				<title>Sheet.611</title>
				<rect x="0" y="87.2205" width="1.45841" height="0.461562" class="st7"/>
			</g>
			<g id="shape612-56" v:mID="612" v:groupContext="shape" transform="translate(-87.2846,87.6411) rotate(-90)">
				<title>Sheet.612</title>
				<rect x="0" y="87.2846" width="1.69369" height="0.397445" class="st7"/>
			</g>
		</g>
		<g id="group613-58" transform="translate(-14.0701,-21.3629) rotate(-40)" v:mID="613" v:groupContext="group">
			<title>Sheet.613</title>
			<g id="shape614-59" v:mID="614" v:groupContext="shape" transform="translate(0,-0.00589671)">
				<title>Sheet.614</title>
				<path d="M21.67 83.22 L21.53 83.22 L0 83.22 L0 87.68 L21.53 87.68 L21.67 87.68 L21.98 87.68 L24.9 85.45 L21.98 83.22
							 L21.67 83.22 Z" class="st8"/>
			</g>
			<g id="shape615-61" v:mID="615" v:groupContext="shape" transform="translate(23.9278,-1.50655)">
				<title>Sheet.615</title>
				<path d="M15.24 87.68 L17.2 86.95 L15.26 86.22 L0 86.22 L0 87.68 L15.24 87.68 Z" class="st6"/>
			</g>
			<g id="shape616-63" v:mID="616" v:groupContext="shape" transform="translate(-66.0143,87.6821) rotate(-90)">
				<title>Slim.8480</title>
				<rect x="0" y="85.7678" width="4.4937" height="1.91427" class="st7"/>
			</g>
			<g id="shape617-65" v:mID="617" v:groupContext="shape" transform="translate(-83.8714,84.7405) rotate(-90)">
				<title>Slim.8481</title>
				<rect x="0" y="87.2378" width="1.44862" height="0.444249" class="st7"/>
			</g>
			<g id="shape618-67" v:mID="618" v:groupContext="shape" transform="translate(-72.4393,84.7405) rotate(-90)">
				<title>Slim.8482</title>
				<rect x="0" y="87.2378" width="1.44862" height="0.444249" class="st7"/>
			</g>
			<g id="shape619-69" v:mID="619" v:groupContext="shape" transform="translate(-78.3145,85.6369) rotate(-90)">
				<title>Slim.8483</title>
				<rect x="0" y="87.2378" width="2.34502" height="0.444249" class="st7"/>
			</g>
			<g id="shape620-71" v:mID="620" v:groupContext="shape" transform="translate(-81.2581,84.2619) rotate(-90)">
				<title>Slim.8484</title>
				<rect x="0" y="87.5681" width="0.970029" height="0.113934" class="st7"/>
			</g>
			<g id="shape621-73" v:mID="621" v:groupContext="shape" transform="translate(-75.7012,84.2619) rotate(-90)">
				<title>Slim.8485</title>
				<rect x="0" y="87.5681" width="0.970029" height="0.113934" class="st7"/>
			</g>
			<g id="shape622-75" v:mID="622" v:groupContext="shape" transform="translate(-48.5661,85.1016) rotate(-90)">
				<title>Slim.8486</title>
				<rect x="0" y="72.6922" width="0.305993" height="14.9899" class="st9"/>
			</g>
		</g>
		<g id="shape623-77" v:mID="623" v:groupContext="shape" transform="translate(2.875,-2.875)">
			<title>Sheet.623</title>
			<path d="M57.93 87.68 L81.93 63.68 L81.93 29.75 L57.93 5.75 L24 5.75 L0 29.75 L0 63.68 L24 87.68 L57.93 87.68 Z"
					class="st10"/>
		</g>
	</g>
</svg>
