<?xml version="1.0" encoding="UTF-8" standalone="no"?>
<!DOCTYPE svg PUBLIC "-//W3C//DTD SVG 1.1//EN" "http://www.w3.org/Graphics/SVG/1.1/DTD/svg11.dtd">
<!-- Generated by Microsoft Visio, SVG Export rifle.svg Page-1 -->
<svg xmlns="http://www.w3.org/2000/svg" xmlns:xlink="http://www.w3.org/1999/xlink" xmlns:ev="http://www.w3.org/2001/xml-events"
		xmlns:v="http://schemas.microsoft.com/visio/2003/SVGExtensions/" width="1.07291in" height="0.159237in"
		viewBox="0 0 77.2494 11.4651" xml:space="preserve" color-interpolation-filters="sRGB" class="st10">
	<v:documentProperties v:langID="1033" v:viewMarkup="false"/>

	<style type="text/css">
	<![CDATA[
		.st1 {fill:#7f7f7f;stroke:none;stroke-width:0.75}
		.st2 {fill:#a5a5a5;stroke:none;stroke-width:0.75}
		.st3 {fill:#663300;stroke:none;stroke-width:0.75}
		.st4 {fill:#996633;stroke:none;stroke-width:0.75}
		.st5 {fill:#ff0066;stroke:none;stroke-width:0.75}
		.st6 {fill:#bfbfbf;stroke:none;stroke-width:0.75}
		.st7 {fill:#ffc000;stroke:none;stroke-width:0.75}
		.st8 {fill:#00b050;stroke:none;stroke-width:0.75}
		.st9 {fill:#d8d8d8;stroke:none;stroke-width:0.75}
		.st10 {fill:none;fill-rule:evenodd;font-size:12px;overflow:visible;stroke-linecap:square;stroke-miterlimit:3}
	]]>
	</style>

	<g v:mID="0" v:index="1" v:groupContext="foregroundPage">
		<title>Page-1</title>
		<v:pageProperties v:drawingScale="1" v:pageScale="1" v:drawingUnits="19" v:shadowOffsetX="9" v:shadowOffsetY="-9"/>
		<g id="shape466-1" v:mID="466" v:groupContext="shape" transform="translate(25.9713,2.16973) rotate(-90)">
			<title>Slim.8508</title>
			<rect x="0" y="9.3986" width="1.41973" height="2.06648" class="st1"/>
		</g>
		<g id="shape467-3" v:mID="467" v:groupContext="shape" transform="translate(29.6877,-3.55477)">
			<title>Slim.8509</title>
			<rect x="0" y="7.73139" width="4.1326" height="3.73369" class="st1"/>
		</g>
		<g id="shape468-5" v:mID="468" v:groupContext="shape" transform="translate(23.9661,5.21551) rotate(-90)">
			<title>Slim.8510</title>
			<rect x="0" y="3.65161" width="4.46551" height="7.81347" class="st2"/>
		</g>
		<g id="shape469-7" v:mID="469" v:groupContext="shape" transform="translate(16.8525,5.21551) rotate(-90)">
			<title>Slim.8511</title>
			<rect x="0" y="3.65161" width="4.46551" height="7.81347" class="st3"/>
		</g>
		<g id="shape470-9" v:mID="470" v:groupContext="shape" transform="translate(11.0262,8.03073) rotate(-105)">
			<title>Slim.8512</title>
			<rect x="0" y="-9.44213" width="4.46551" height="20.9072" class="st3"/>
		</g>
		<g id="shape471-11" v:mID="471" v:groupContext="shape" transform="translate(10.6355,5.21551) rotate(-90)">
			<title>Slim.8513</title>
			<rect x="0" y="-9.8855" width="4.46551" height="21.3506" class="st3"/>
		</g>
		<g id="shape472-13" v:mID="472" v:groupContext="shape" transform="translate(-2.7301,8.64369) rotate(-90)">
			<title>Slim.8514</title>
			<rect x="0" y="3.48009" width="7.89369" height="7.98499" class="st3"/>
		</g>
		<g id="shape473-15" v:mID="473" v:groupContext="shape" transform="translate(-6.58248,10.7151) rotate(-90)">
			<title>Slim.8515</title>
			<rect x="0" y="7.33248" width="4.08535" height="4.1326" class="st3"/>
		</g>
		<g id="shape474-17" v:mID="474" v:groupContext="shape" transform="translate(22.5816,2.90155) rotate(-90)">
			<title>Slim.8516</title>
			<rect x="0" y="7.33248" width="1.41973" height="4.1326" class="st1"/>
		</g>
		<g id="shape475-19" v:mID="475" v:groupContext="shape" transform="translate(16.8451,1.26945) rotate(-90)">
			<title>Slim.8517</title>
			<rect x="0" y="-16.0951" width="0.519445" height="27.5602" class="st4"/>
		</g>
		<g id="shape476-21" v:mID="476" v:groupContext="shape" transform="translate(24.0818,2.16973) rotate(-90)">
			<title>Slim.8518</title>
			<rect x="0" y="11.288" width="1.41973" height="0.177036" class="st1"/>
		</g>
		<g id="shape477-23" v:mID="477" v:groupContext="shape" transform="translate(29.6877,-0.990545)">
			<title>Slim.8519</title>
			<rect x="0" y="7.73139" width="4.1326" height="3.73369" class="st1"/>
		</g>
		<g id="group478-25" transform="translate(26.7149,-0.990545)" v:mID="478" v:groupContext="group">
			<title>Slim.8520</title>
			<g id="shape479-26" v:mID="479" v:groupContext="shape" transform="translate(2.7765,-0.184457)">
				<title>Sheet.479</title>
				<path d="M4.5 10.06 L4.47 10.06 L0 10.06 L0 11.47 L4.47 11.47 L4.5 11.47 L4.56 11.47 L5.17 10.76 L4.56 10.06 L4.5
							 10.06 Z" class="st5"/>
			</g>
			<g id="shape480-28" v:mID="480" v:groupContext="shape" transform="translate(7.74444,-0.65704)">
				<title>Sheet.480</title>
				<path d="M3.16 11.47 L3.57 11.23 L3.17 11 L0 11 L0 11.47 L3.16 11.47 Z" class="st6"/>
			</g>
			<g id="shape481-30" v:mID="481" v:groupContext="shape" transform="translate(-8.65389,11.4651) rotate(-90)">
				<title>Sheet.481</title>
				<path d="M1.58 10.17 L1.53 10.17 L1.24 10.17 L0.25 10.17 L0.18 10.17 L0 10.82 L0.18 11.47 L0.2 11.47 L0.25 11.47
							 L0.53 11.47 L1.53 11.47 L1.6 11.47 L1.78 10.82 L1.6 10.17 L1.58 10.17 Z" class="st7"/>
			</g>
			<g id="shape482-32" v:mID="482" v:groupContext="shape" transform="translate(0.307597,-0.65704)">
				<title>Sheet.482</title>
				<rect x="0" y="11.0035" width="1.45841" height="0.461562" class="st7"/>
			</g>
			<g id="shape483-34" v:mID="483" v:groupContext="shape" transform="translate(-11.0676,11.4241) rotate(-90)">
				<title>Sheet.483</title>
				<rect x="0" y="11.0676" width="1.69369" height="0.397445" class="st7"/>
			</g>
		</g>
		<g id="group484-36" transform="translate(26.7149,-2.76217)" v:mID="484" v:groupContext="group">
			<title>Slim.8526</title>
			<g id="shape485-37" v:mID="485" v:groupContext="shape" transform="translate(2.7765,-0.184457)">
				<title>Sheet.485</title>
				<path d="M4.5 10.06 L4.47 10.06 L0 10.06 L0 11.47 L4.47 11.47 L4.5 11.47 L4.56 11.47 L5.17 10.76 L4.56 10.06 L4.5
							 10.06 Z" class="st5"/>
			</g>
			<g id="shape486-39" v:mID="486" v:groupContext="shape" transform="translate(7.74444,-0.65704)">
				<title>Sheet.486</title>
				<path d="M3.16 11.47 L3.57 11.23 L3.17 11 L0 11 L0 11.47 L3.16 11.47 Z" class="st6"/>
			</g>
			<g id="shape487-41" v:mID="487" v:groupContext="shape" transform="translate(-8.65389,11.4651) rotate(-90)">
				<title>Sheet.487</title>
				<path d="M1.58 10.17 L1.53 10.17 L1.24 10.17 L0.25 10.17 L0.18 10.17 L0 10.82 L0.18 11.47 L0.2 11.47 L0.25 11.47
							 L0.53 11.47 L1.53 11.47 L1.6 11.47 L1.78 10.82 L1.6 10.17 L1.58 10.17 Z" class="st7"/>
			</g>
			<g id="shape488-43" v:mID="488" v:groupContext="shape" transform="translate(0.307597,-0.65704)">
				<title>Sheet.488</title>
				<rect x="0" y="11.0035" width="1.45841" height="0.461562" class="st7"/>
			</g>
			<g id="shape489-45" v:mID="489" v:groupContext="shape" transform="translate(-11.0676,11.4241) rotate(-90)">
				<title>Sheet.489</title>
				<rect x="0" y="11.0676" width="1.69369" height="0.397445" class="st7"/>
			</g>
		</g>
		<g id="group490-47" transform="translate(26.7149,-4.5338)" v:mID="490" v:groupContext="group">
			<title>Slim.8532</title>
			<g id="shape491-48" v:mID="491" v:groupContext="shape" transform="translate(2.7765,-0.184457)">
				<title>Sheet.491</title>
				<path d="M4.5 10.06 L4.47 10.06 L0 10.06 L0 11.47 L4.47 11.47 L4.5 11.47 L4.56 11.47 L5.17 10.76 L4.56 10.06 L4.5
							 10.06 Z" class="st5"/>
			</g>
			<g id="shape492-50" v:mID="492" v:groupContext="shape" transform="translate(7.74444,-0.65704)">
				<title>Sheet.492</title>
				<path d="M3.16 11.47 L3.57 11.23 L3.17 11 L0 11 L0 11.47 L3.16 11.47 Z" class="st6"/>
			</g>
			<g id="shape493-52" v:mID="493" v:groupContext="shape" transform="translate(-8.65389,11.4651) rotate(-90)">
				<title>Sheet.493</title>
				<path d="M1.58 10.17 L1.53 10.17 L1.24 10.17 L0.25 10.17 L0.18 10.17 L0 10.82 L0.18 11.47 L0.2 11.47 L0.25 11.47
							 L0.53 11.47 L1.53 11.47 L1.6 11.47 L1.78 10.82 L1.6 10.17 L1.58 10.17 Z" class="st7"/>
			</g>
			<g id="shape494-54" v:mID="494" v:groupContext="shape" transform="translate(0.307597,-0.65704)">
				<title>Sheet.494</title>
				<rect x="0" y="11.0035" width="1.45841" height="0.461562" class="st7"/>
			</g>
			<g id="shape495-56" v:mID="495" v:groupContext="shape" transform="translate(-11.0676,11.4241) rotate(-90)">
				<title>Sheet.495</title>
				<rect x="0" y="11.0676" width="1.69369" height="0.397445" class="st7"/>
			</g>
		</g>
		<g id="group496-58" transform="translate(35.3699,-6.22139)" v:mID="496" v:groupContext="group">
			<title>Sheet.496</title>
			<g id="shape497-59" v:mID="497" v:groupContext="shape" transform="translate(0,-0.00589671)">
				<title>Sheet.497</title>
				<path d="M21.67 7 L21.53 7 L0 7 L0 11.47 L21.53 11.47 L21.67 11.47 L21.98 11.47 L24.9 9.23 L21.98 7 L21.67 7 Z"
						class="st8"/>
			</g>
			<g id="shape498-61" v:mID="498" v:groupContext="shape" transform="translate(23.9278,-1.50655)">
				<title>Sheet.498</title>
				<path d="M15.24 11.47 L17.2 10.73 L15.26 10 L0 10 L0 11.47 L15.24 11.47 Z" class="st6"/>
			</g>
			<g id="shape499-63" v:mID="499" v:groupContext="shape" transform="translate(10.2027,11.4651) rotate(-90)">
				<title>Slim.8480</title>
				<rect x="0" y="9.55081" width="4.4937" height="1.91427" class="st7"/>
			</g>
			<g id="shape500-65" v:mID="500" v:groupContext="shape" transform="translate(-7.65441,8.52355) rotate(-90)">
				<title>Slim.8481</title>
				<rect x="0" y="11.0208" width="1.44862" height="0.444249" class="st7"/>
			</g>
			<g id="shape501-67" v:mID="501" v:groupContext="shape" transform="translate(3.77766,8.52355) rotate(-90)">
				<title>Slim.8482</title>
				<rect x="0" y="11.0208" width="1.44862" height="0.444249" class="st7"/>
			</g>
			<g id="shape502-69" v:mID="502" v:groupContext="shape" transform="translate(-2.09752,9.41995) rotate(-90)">
				<title>Slim.8483</title>
				<rect x="0" y="11.0208" width="2.34502" height="0.444249" class="st7"/>
			</g>
			<g id="shape503-71" v:mID="503" v:groupContext="shape" transform="translate(-5.04112,8.04496) rotate(-90)">
				<title>Slim.8484</title>
				<rect x="0" y="11.3511" width="0.970029" height="0.113934" class="st7"/>
			</g>
			<g id="shape504-73" v:mID="504" v:groupContext="shape" transform="translate(0.515771,8.04496) rotate(-90)">
				<title>Slim.8485</title>
				<rect x="0" y="11.3511" width="0.970029" height="0.113934" class="st7"/>
			</g>
			<g id="shape505-75" v:mID="505" v:groupContext="shape" transform="translate(27.6508,8.88459) rotate(-90)">
				<title>Slim.8486</title>
				<rect x="0" y="-3.52478" width="0.305993" height="14.9899" class="st9"/>
			</g>
		</g>
	</g>
</svg>
