<?xml version="1.0" encoding="UTF-8" standalone="no"?>
<!DOCTYPE svg PUBLIC "-//W3C//DTD SVG 1.1//EN" "http://www.w3.org/Graphics/SVG/1.1/DTD/svg11.dtd">
<!-- Generated by Microsoft Visio, SVG Export rifleAmmo.svg Page-1 -->
<svg xmlns="http://www.w3.org/2000/svg" xmlns:xlink="http://www.w3.org/1999/xlink" xmlns:ev="http://www.w3.org/2001/xml-events"
		xmlns:v="http://schemas.microsoft.com/visio/2003/SVGExtensions/" width="2.04361in" height="0.419935in"
		viewBox="0 0 147.14 30.2353" xml:space="preserve" color-interpolation-filters="sRGB" class="st5">
	<v:documentProperties v:langID="1033" v:viewMarkup="false"/>

	<style type="text/css">
	<![CDATA[
		.st1 {fill:#00b050;stroke:none;stroke-width:0.75}
		.st2 {fill:#bfbfbf;stroke:none;stroke-width:0.75}
		.st3 {fill:#ffc000;stroke:none;stroke-width:0.75}
		.st4 {fill:#d8d8d8;stroke:none;stroke-width:0.75}
		.st5 {fill:none;fill-rule:evenodd;font-size:12px;overflow:visible;stroke-linecap:square;stroke-miterlimit:3}
	]]>
	</style>

	<g v:mID="0" v:index="1" v:groupContext="foregroundPage">
		<title>Page-1</title>
		<v:pageProperties v:drawingScale="1" v:pageScale="1" v:drawingUnits="19" v:shadowOffsetX="9" v:shadowOffsetY="-9"/>
		<g id="group624-1" transform="translate(0.75,-2.29937)" v:mID="624" v:groupContext="group">
			<title>2xDiamond.8572</title>
			<g id="shape625-2" v:mID="625" v:groupContext="shape" transform="translate(36.794,-8.19856)">
				<title>Sheet.625</title>
				<path d="M57.35 20.95 L56.98 20.95 L0 20.95 L0 30.24 L56.98 30.24 L57.35 30.24 L58.18 30.24 L65.9 25.59 L58.18 20.95
							 L57.35 20.95 Z" class="st1"/>
			</g>
			<g id="shape626-4" v:mID="626" v:groupContext="shape" transform="translate(100.117,-11.318)">
				<title>Sheet.626</title>
				<path d="M40.33 30.24 L45.52 28.7 L40.38 27.19 L0 27.19 L0 30.24 L40.33 30.24 Z" class="st2"/>
			</g>
			<g id="shape627-6" v:mID="627" v:groupContext="shape" transform="translate(7.00083,23.2543) rotate(-90)">
				<title>Sheet.627</title>
				<path d="M10.41 13.67 L10.1 13.67 L8.22 13.67 L1.62 13.67 L1.18 13.67 L0 21.95 L1.18 30.24 L1.31 30.24 L1.62 30.24
							 L3.5 30.24 L10.1 30.24 L10.54 30.24 L11.72 21.95 L10.54 13.67 L10.41 13.67 Z" class="st3"/>
			</g>
			<g id="shape628-8" v:mID="628" v:groupContext="shape" transform="translate(3.52428,-11.0739)">
				<title>Sheet.628</title>
				<rect x="0" y="26.7005" width="18.5894" height="3.53482" class="st3"/>
			</g>
			<g id="shape629-10" v:mID="629" v:groupContext="shape" transform="translate(44.015,4.18038) rotate(45)">
				<title>Sheet.629</title>
				<rect x="0" y="21.4323" width="8.80307" height="8.80307" class="st3"/>
			</g>
			<g id="shape630-12" v:mID="630" v:groupContext="shape" transform="translate(44.015,-12.1055) rotate(45)">
				<title>Sheet.630</title>
				<rect x="0" y="21.4323" width="8.80307" height="8.80307" class="st3"/>
			</g>
			<g id="shape631-14" v:mID="631" v:groupContext="shape" transform="translate(-22.5572,22.0368) rotate(-90)">
				<title>Sheet.631</title>
				<rect x="0" y="22.5572" width="9.28551" height="7.67808" class="st3"/>
			</g>
		</g>
		<g id="shape632-16" v:mID="632" v:groupContext="shape" transform="translate(64.587,19.7104) rotate(-90)">
			<title>Slim.8580</title>
			<rect x="0" y="25.2053" width="9.27486" height="5.03004" class="st3"/>
		</g>
		<g id="shape633-18" v:mID="633" v:groupContext="shape" transform="translate(17.6647,13.6392) rotate(-90)">
			<title>Slim.8581</title>
			<rect x="0" y="29.068" width="2.98991" height="1.16733" class="st3"/>
		</g>
		<g id="shape634-20" v:mID="634" v:groupContext="shape" transform="translate(47.7042,13.6392) rotate(-90)">
			<title>Slim.8582</title>
			<rect x="0" y="29.068" width="2.98991" height="1.16733" class="st3"/>
		</g>
		<g id="shape635-22" v:mID="635" v:groupContext="shape" transform="translate(32.2663,15.4893) rotate(-90)">
			<title>Slim.8583</title>
			<rect x="0" y="29.068" width="4.84006" height="1.16733" class="st3"/>
		</g>
		<g id="shape636-24" v:mID="636" v:groupContext="shape" transform="translate(24.5315,12.6514) rotate(-90)">
			<title>Slim.8584</title>
			<rect x="0" y="29.9359" width="2.00211" height="0.29938" class="st3"/>
		</g>
		<g id="shape637-26" v:mID="637" v:groupContext="shape" transform="translate(39.1331,12.6514) rotate(-90)">
			<title>Slim.8585</title>
			<rect x="0" y="29.9359" width="2.00211" height="0.29938" class="st3"/>
		</g>
		<g id="shape638-28" v:mID="638" v:groupContext="shape" transform="translate(111.185,14.1843) rotate(-90)">
			<title>Slim.8588</title>
			<rect x="0" y="-10.2295" width="0.468485" height="40.4648" class="st4"/>
		</g>
	</g>
</svg>
