<?xml version="1.0" encoding="UTF-8" standalone="no"?>
<!DOCTYPE svg PUBLIC "-//W3C//DTD SVG 1.1//EN" "http://www.w3.org/Graphics/SVG/1.1/DTD/svg11.dtd">
<!-- Generated by Microsoft Visio, SVG Export slingAmmo.svg Page-1 -->
<svg xmlns="http://www.w3.org/2000/svg" xmlns:xlink="http://www.w3.org/1999/xlink" xmlns:ev="http://www.w3.org/2001/xml-events"
		xmlns:v="http://schemas.microsoft.com/visio/2003/SVGExtensions/" width="1.35531in" height="0.353098in"
		viewBox="0 0 97.5823 25.4231" xml:space="preserve" color-interpolation-filters="sRGB" class="st4">
	<v:documentProperties v:langID="1033" v:viewMarkup="false"/>

	<style type="text/css">
	<![CDATA[
		.st1 {fill:#0070c0;stroke:none;stroke-width:0.75}
		.st2 {fill:#bfbfbf;stroke:none;stroke-width:0.75}
		.st3 {fill:#ffc000;stroke:none;stroke-width:0.75}
		.st4 {fill:none;fill-rule:evenodd;font-size:12px;overflow:visible;stroke-linecap:square;stroke-miterlimit:3}
	]]>
	</style>

	<g v:mID="0" v:index="1" v:groupContext="foregroundPage">
		<title>Page-1</title>
		<v:pageProperties v:drawingScale="1" v:pageScale="1" v:drawingUnits="19" v:shadowOffsetX="9" v:shadowOffsetY="-9"/>
		<g id="group445-1" transform="translate(0.75,-0.75)" v:mID="445" v:groupContext="group">
			<title>Sheet.445</title>
			<g id="shape446-2" v:mID="446" v:groupContext="shape" transform="translate(37.4076,-2.48517)">
				<title>Sheet.446</title>
				<path d="M24.06 6.47 L23.9 6.47 L0 6.47 L0 25.42 L23.9 25.42 L24.06 25.42 L24.41 25.42 L27.64 15.95 L24.41 6.47 L24.06
							 6.47 Z" class="st1"/>
			</g>
			<g id="shape447-4" v:mID="447" v:groupContext="shape" transform="translate(63.9715,-8.85224)">
				<title>Sheet.447</title>
				<path d="M28.45 25.42 L32.11 22.3 L28.49 19.2 L0 19.2 L0 25.42 L28.45 25.42 Z" class="st2"/>
			</g>
			<g id="shape448-6" v:mID="448" v:groupContext="shape" transform="translate(12.4519,25.4231) rotate(-90)">
				<title>Sheet.448</title>
				<path d="M21.25 7.91 L20.62 7.91 L16.77 7.91 L3.31 7.91 L2.42 7.91 L0 16.67 L2.42 25.42 L2.68 25.42 L3.31 25.42 L7.15
							 25.42 L20.62 25.42 L21.51 25.42 L23.92 16.67 L21.51 7.91 L21.25 7.91 Z" class="st3"/>
			</g>
			<g id="shape449-8" v:mID="449" v:groupContext="shape" transform="translate(4.14422,-8.85224)">
				<title>Sheet.449</title>
				<rect x="0" y="19.2045" width="19.6491" height="6.21858" class="st3"/>
			</g>
			<g id="shape450-10" v:mID="450" v:groupContext="shape" transform="translate(-20.0683,24.871) rotate(-90)">
				<title>Sheet.450</title>
				<rect x="0" y="20.0683" width="22.8189" height="5.35474" class="st3"/>
			</g>
		</g>
	</g>
</svg>
