<?xml version="1.0" encoding="UTF-8" standalone="no"?>
<!DOCTYPE svg PUBLIC "-//W3C//DTD SVG 1.1//EN" "http://www.w3.org/Graphics/SVG/1.1/DTD/svg11.dtd">
<!-- Generated by Microsoft Visio, SVG Export WASDkeysHelp.svg Page-1 -->
<svg xmlns="http://www.w3.org/2000/svg" xmlns:xlink="http://www.w3.org/1999/xlink" xmlns:ev="http://www.w3.org/2001/xml-events"
		xmlns:v="http://schemas.microsoft.com/visio/2003/SVGExtensions/" width="3.83976in" height="2.32064in"
		viewBox="0 0 276.463 167.086" xml:space="preserve" color-interpolation-filters="sRGB" class="st4">
	<v:documentProperties v:langID="1033" v:viewMarkup="false"/>

	<style type="text/css">
	<![CDATA[
		.st1 {fill:#d8d8d8;stroke:#000000;stroke-width:2.5}
		.st2 {fill:#000000;font-family:Calibri;font-size:2.50001em}
		.st3 {fill:none;stroke:none;stroke-width:0.25}
		.st4 {fill:none;fill-rule:evenodd;font-size:12px;overflow:visible;stroke-linecap:square;stroke-miterlimit:3}
	]]>
	</style>

	<g v:mID="0" v:index="1" v:groupContext="foregroundPage">
		<title>Page-1</title>
		<v:pageProperties v:drawingScale="1" v:pageScale="1" v:drawingUnits="19" v:shadowOffsetX="9" v:shadowOffsetY="-9"/>
		<v:layer v:name="Annotations" v:index="0"/>
		<g id="shape8943-1" v:mID="8943" v:groupContext="shape" transform="translate(109.457,-63.9187)">
			<title>function (best).8938</title>
			<desc>W</desc>
			<v:userDefs>
				<v:ud v:nameU="msvShapeCategories" v:prompt="" v:val="VT4(Database;DbEntity)"/>
				<v:ud v:nameU="EntityName" v:prompt="" v:val="VT4()"/>
				<v:ud v:nameU="EntityNameSpace" v:prompt="" v:val="VT4()"/>
				<v:ud v:nameU="Weak" v:prompt="" v:val="VT0(0):5"/>
				<v:ud v:nameU="Composite" v:prompt="" v:val="VT0(0):5"/>
				<v:ud v:nameU="visVersion" v:prompt="" v:val="VT0(15):26"/>
				<v:ud v:nameU="EntityName" v:prompt="" v:val="VT4(W)"/>
				<v:ud v:nameU="EntityNameSpace" v:prompt="" v:val="VT4(W)"/>
			</v:userDefs>
			<v:textBlock v:margins="rect(4,4,4,4)"/>
			<v:textRect cx="28.7746" cy="139.371" width="57.55" height="55.4301"/>
			<path d="M4.5 167.09 L53.05 167.09 A4.5 4.5 -180 0 0 57.55 162.59 L57.55 116.16 A4.5 4.5 -180 0 0 53.05 111.66 L4.5 111.66
						 A4.5 4.5 -180 0 0 0 116.16 L0 162.59 A4.5 4.5 -180 0 0 4.5 167.09 Z" class="st1"/>
			<text x="15.43" y="148.37" class="st2" v:langID="1033"><v:paragraph v:horizAlign="1"/><v:tabList/>W</text>		</g>
		<g id="shape8944-4" v:mID="8944" v:groupContext="shape" transform="translate(47.6105,-2.5)">
			<title>function (best).8939</title>
			<desc>A</desc>
			<v:userDefs>
				<v:ud v:nameU="msvShapeCategories" v:prompt="" v:val="VT4(Database;DbEntity)"/>
				<v:ud v:nameU="EntityName" v:prompt="" v:val="VT4()"/>
				<v:ud v:nameU="EntityNameSpace" v:prompt="" v:val="VT4()"/>
				<v:ud v:nameU="Weak" v:prompt="" v:val="VT0(0):5"/>
				<v:ud v:nameU="Composite" v:prompt="" v:val="VT0(0):5"/>
				<v:ud v:nameU="visVersion" v:prompt="" v:val="VT0(15):26"/>
				<v:ud v:nameU="EntityName" v:prompt="" v:val="VT4(A)"/>
				<v:ud v:nameU="EntityNameSpace" v:prompt="" v:val="VT4(A)"/>
			</v:userDefs>
			<v:textBlock v:margins="rect(4,4,4,4)"/>
			<v:textRect cx="28.7746" cy="139.371" width="57.55" height="55.4301"/>
			<path d="M4.5 167.09 L53.05 167.09 A4.5 4.5 -180 0 0 57.55 162.59 L57.55 116.16 A4.5 4.5 -180 0 0 53.05 111.66 L4.5 111.66
						 A4.5 4.5 -180 0 0 0 116.16 L0 162.59 A4.5 4.5 -180 0 0 4.5 167.09 Z" class="st1"/>
			<text x="20.1" y="148.37" class="st2" v:langID="1033"><v:paragraph v:horizAlign="1"/><v:tabList/>A</text>		</g>
		<g id="shape8945-7" v:mID="8945" v:groupContext="shape" transform="translate(109.457,-2.5)">
			<title>function (best).8940</title>
			<desc>S</desc>
			<v:userDefs>
				<v:ud v:nameU="msvShapeCategories" v:prompt="" v:val="VT4(Database;DbEntity)"/>
				<v:ud v:nameU="EntityName" v:prompt="" v:val="VT4()"/>
				<v:ud v:nameU="EntityNameSpace" v:prompt="" v:val="VT4()"/>
				<v:ud v:nameU="Weak" v:prompt="" v:val="VT0(0):5"/>
				<v:ud v:nameU="Composite" v:prompt="" v:val="VT0(0):5"/>
				<v:ud v:nameU="visVersion" v:prompt="" v:val="VT0(15):26"/>
				<v:ud v:nameU="EntityName" v:prompt="" v:val="VT4(S)"/>
				<v:ud v:nameU="EntityNameSpace" v:prompt="" v:val="VT4(S)"/>
			</v:userDefs>
			<v:textBlock v:margins="rect(4,4,4,4)"/>
			<v:textRect cx="28.7746" cy="139.371" width="57.55" height="55.4301"/>
			<path d="M4.5 167.09 L53.05 167.09 A4.5 4.5 -180 0 0 57.55 162.59 L57.55 116.16 A4.5 4.5 -180 0 0 53.05 111.66 L4.5 111.66
						 A4.5 4.5 -180 0 0 0 116.16 L0 162.59 A4.5 4.5 -180 0 0 4.5 167.09 Z" class="st1"/>
			<text x="21.88" y="148.37" class="st2" v:langID="1033"><v:paragraph v:horizAlign="1"/><v:tabList/>S</text>		</g>
		<g id="shape8946-10" v:mID="8946" v:groupContext="shape" transform="translate(171.303,-2.5)">
			<title>function (best).8941</title>
			<desc>D</desc>
			<v:userDefs>
				<v:ud v:nameU="msvShapeCategories" v:prompt="" v:val="VT4(Database;DbEntity)"/>
				<v:ud v:nameU="EntityName" v:prompt="" v:val="VT4()"/>
				<v:ud v:nameU="EntityNameSpace" v:prompt="" v:val="VT4()"/>
				<v:ud v:nameU="Weak" v:prompt="" v:val="VT0(0):5"/>
				<v:ud v:nameU="Composite" v:prompt="" v:val="VT0(0):5"/>
				<v:ud v:nameU="visVersion" v:prompt="" v:val="VT0(15):26"/>
				<v:ud v:nameU="EntityName" v:prompt="" v:val="VT4(D)"/>
				<v:ud v:nameU="EntityNameSpace" v:prompt="" v:val="VT4(D)"/>
			</v:userDefs>
			<v:textBlock v:margins="rect(4,4,4,4)"/>
			<v:textRect cx="28.7746" cy="139.371" width="57.55" height="55.4301"/>
			<path d="M4.5 167.09 L53.05 167.09 A4.5 4.5 -180 0 0 57.55 162.59 L57.55 116.16 A4.5 4.5 -180 0 0 53.05 111.66 L4.5 111.66
						 A4.5 4.5 -180 0 0 0 116.16 L0 162.59 A4.5 4.5 -180 0 0 4.5 167.09 Z" class="st1"/>
			<text x="19.55" y="148.37" class="st2" v:langID="1033"><v:paragraph v:horizAlign="1"/><v:tabList/>D</text>		</g>
		<g id="shape8947-13" v:mID="8947" v:groupContext="shape" v:layerMember="0" transform="translate(0.25,-127.413)">
			<title>Sheet.8947</title>
			<desc>To Move Use Keys</desc>
			<v:userDefs>
				<v:ud v:nameU="AntiScale" v:val="VT0(1):26"/>
				<v:ud v:nameU="AutoWidth" v:val="VT0(0.38065555555553):1"/>
				<v:ud v:nameU="WidthIncrement" v:val="VT0(0.095163888888884):1"/>
				<v:ud v:nameU="visVersion" v:val="VT0(15):26"/>
				<v:ud v:nameU="AutoWidth" v:prompt="" v:val="VT0(3.2852690560477):1"/>
				<v:ud v:nameU="WidthIncrement" v:prompt="" v:val="VT0(0.27377242133731):1"/>
			</v:userDefs>
			<v:textBlock v:margins="rect(0,0,0,0)"/>
			<v:textRect cx="137.981" cy="147.375" width="275.97" height="39.4232"/>
			<rect x="0" y="127.663" width="275.963" height="39.4232" class="st3"/>
			<text x="26.75" y="156.37" class="st2" v:langID="1033"><v:paragraph v:horizAlign="1"/><v:tabList/>To Move Use Keys</text>		</g>
	</g>
</svg>
